0
SECTION
2
HEADER
9
$INSUNITS
70
4
9
$ACADVER
1
AC1014
9
$HANDSEED
5
FFFF
0
ENDSEC
0
SECTION
2
TABLES
0
TABLE
2
VPORT
5
8
100
AcDbSymbolTable
0
ENDTAB
0
TABLE
2
LTYPE
5
5
100
AcDbSymbolTable
0
LTYPE
5
14
100
AcDbSymbolTableRecord
100
AcDbLinetypeTableRecord
2
BYBLOCK
70
0
0
LTYPE
5
15
100
AcDbSymbolTableRecord
100
AcDbLinetypeTableRecord
2
BYLAYER
70
0
0
LTYPE
5
16
100
AcDbSymbolTableRecord
100
AcDbLinetypeTableRecord
2
DASHED
70
0
3
Dashed __ __ __ __ __ __ __ __ __ __ __ __ __ _
72
65
73
2
40
0.75
49
0.5
74
0
49
-0.25
74
0
0
ENDTAB
0
TABLE
2
LAYER
5
2
100
AcDbSymbolTable
70
2
0
LAYER
5
50
100
AcDbSymbolTableRecord
100
AcDbLayerTableRecord
2
0
70
0
62
7
6
CONTINUOUS
0
ENDTAB
0
TABLE
2
STYLE
5
3
100
AcDbSymbolTable
70
1
0
STYLE
5
11
100
AcDbSymbolTableRecord
100
AcDbTextStyleTableRecord
2
STANDARD
70
0
0
ENDTAB
0
TABLE
2
VIEW
5
6
100
AcDbSymbolTable
70
0
0
ENDTAB
0
TABLE
2
UCS
5
7
100
AcDbSymbolTable
70
0
0
ENDTAB
0
TABLE
2
APPID
5
9
100
AcDbSymbolTable
70
2
0
APPID
5
12
100
AcDbSymbolTableRecord
100
AcDbRegAppTableRecord
2
ACAD
70
0
0
ENDTAB
0
TABLE
2
DIMSTYLE
5
A
100
AcDbSymbolTable
70
1
0
ENDTAB
0
TABLE
2
BLOCK_RECORD
5
1
100
AcDbSymbolTable
70
1
0
BLOCK_RECORD
5
1F
100
AcDbSymbolTableRecord
100
AcDbBlockTableRecord
2
*MODEL_SPACE
0
BLOCK_RECORD
5
1B
100
AcDbSymbolTableRecord
100
AcDbBlockTableRecord
2
*PAPER_SPACE
0
ENDTAB
0
ENDSEC
0
SECTION
2
BLOCKS
0
BLOCK
5
20
100
AcDbEntity
100
AcDbBlockBegin
2
*MODEL_SPACE
0
ENDBLK
5
21
100
AcDbEntity
100
AcDbBlockEnd
0
BLOCK
5
1C
100
AcDbEntity
100
AcDbBlockBegin
2
*PAPER_SPACE
0
ENDBLK
5
1D
100
AcDbEntity
100
AcDbBlockEnd
0
ENDSEC
0
SECTION
2
ENTITIES
0
POINT
5
100
100
AcDbEntity
8
0
100
AcDbPoint
10
-150.97000000000003
20
-52.139150000000001
30
0
0
POINT
5
101
100
AcDbEntity
8
0
100
AcDbPoint
10
-170.02000000000004
20
-47.377150000000007
30
0
0
POINT
5
102
100
AcDbEntity
8
0
100
AcDbPoint
10
-189.06999999999999
20
-42.614249999999998
30
0
0
POINT
5
103
100
AcDbEntity
8
0
100
AcDbPoint
10
-208.12
20
-52.139150000000001
30
0
0
POINT
5
104
100
AcDbEntity
8
0
100
AcDbPoint
10
-227.16999999999999
20
-56.902149999999992
30
0
0
POINT
5
105
100
AcDbEntity
8
0
100
AcDbPoint
10
-208.12
20
-71.18965
30
0
0
POINT
5
106
100
AcDbEntity
8
0
100
AcDbPoint
10
-227.16999999999999
20
-75.952149999999989
30
0
0
POINT
5
107
100
AcDbEntity
8
0
100
AcDbPoint
10
-227.16999999999999
20
-95.002149999999986
30
0
0
POINT
5
108
100
AcDbEntity
8
0
100
AcDbPoint
10
-208.12
20
-90.239649999999983
30
0
0
POINT
5
109
100
AcDbEntity
8
0
100
AcDbPoint
10
-189.06999999999999
20
-80.714650000000006
30
0
0
POINT
5
110
100
AcDbEntity
8
0
100
AcDbPoint
10
-189.06999999999999
20
-61.664649999999995
30
0
0
POINT
5
111
100
AcDbEntity
8
0
100
AcDbPoint
10
-170.02000000000004
20
-66.427149999999983
30
0
0
POINT
5
112
100
AcDbEntity
8
0
100
AcDbPoint
10
-170.02000000000004
20
-85.47714999999998
30
0
0
POINT
5
113
100
AcDbEntity
8
0
100
AcDbPoint
10
-150.97000000000003
20
-71.18965
30
0
0
POINT
5
114
100
AcDbEntity
8
0
100
AcDbPoint
10
-150.97000000000003
20
-90.239649999999983
30
0
0
POINT
5
115
100
AcDbEntity
8
0
100
AcDbPoint
10
-179.54499999999999
20
-109.28964999999999
30
0
0
POINT
5
116
100
AcDbEntity
8
0
100
AcDbPoint
10
-135.98425
20
-118.94705
30
0
0
POINT
5
117
100
AcDbEntity
8
0
100
AcDbPoint
10
-156.80324999999999
20
-112.656925
30
0
0
CIRCLE
5
118
100
AcDbEntity
8
0
100
AcDbCircle
10
-237.17000000000002
20
-46.902299999999983
30
0
40
1.7500000000000071
210
0
220
-0
230
1
0
CIRCLE
5
119
100
AcDbEntity
8
0
100
AcDbCircle
10
-131.1479371324163
20
-132.23628022081414
30
0
40
1.7500000000000071
210
0
220
-0
230
1
0
CIRCLE
5
120
100
AcDbEntity
8
0
100
AcDbCircle
10
-237.17000000000002
20
-105.002
30
0
40
1.7500000000000071
210
0
220
-0
230
1
0
CIRCLE
5
121
100
AcDbEntity
8
0
100
AcDbCircle
10
-179.04911633358461
20
-32.614000000000004
30
0
40
1.7499999999999716
210
0
220
-0
230
1
0
CIRCLE
5
122
100
AcDbEntity
8
0
100
AcDbCircle
10
-112.8445285892535
20
-41.015206147766278
30
0
40
1.7500000000000071
210
0
220
-0
230
1
0
CIRCLE
5
123
100
AcDbEntity
8
0
100
AcDbCircle
10
-190
20
-95
30
0
40
1.7499999999999716
210
0
220
-0
230
1
0
LWPOLYLINE
5
124
100
AcDbEntity
8
0
100
AcDbPolyline
90
4
70
1
43
0.0
10
-136.72
20
-41.638800000000003
10
-132.71999999999997
20
-41.638800000000003
10
-132.72
20
-76.319094102690826
10
-136.72
20
-76.319094102690826
0
LWPOLYLINE
5
125
100
AcDbEntity
8
0
100
AcDbPolyline
90
34
70
1
43
0.0
10
-112.00975140267727
20
-36.991016486576143
10
-153.33041840806411
20
-37.138787210958661
42
-0.3227740601047534
10
-155.23255053605104
20
-35.77837142857129
42
0.32178715558706933
10
-159.97000000000017
20
-32.377299999999465
10
-172.41607984114762
20
-32.37729999999992
42
-0.32186202773809425
10
-174.31123312470109
20
-31.016357142857061
42
0.32186202773810851
10
-179.04911633358461
20
-27.613999999999979
10
-199.08047135153561
20
-27.614000000000001
42
0.41267688144825893
10
-204.08040246103951
20
-32.587753091353548
10
-204.09384917735963
20
-35.149298763458575
42
-0.41267688144824988
10
-206.0938216211612
20
-37.138800000000025
10
-218.14088279422089
20
-37.13880000000001
42
0.3218703466447918
10
-222.87881417299789
20
-40.541300000000014
42
-0.32187034664478176
10
-224.77398672450872
20
-41.90229999999999
10
-237.17000000000002
20
-41.90229999999999
42
0.41421356237309509
10
-242.16999999999999
20
-46.902299999999983
10
-242.17000000000002
20
-105.002
42
0.41421356237309298
10
-237.17000000000007
20
-110.00200000000001
10
-217.12
20
-110.00199999999998
42
0.40036339762321582
10
-212.12564381025939
20
-105.23949999999999
10
-201.12787984119623
20
-105.23949999999999
10
-194.54499999999999
20
-105.27408160376106
10
-194.54499999999999
20
-119.2895
42
0.41421356237308982
10
-189.54500000000002
20
-124.28950000000002
10
-172.83517781225186
20
-124.2895
10
-167.3472481491101
20
-125.36117679064967
10
-153.74546276262964
20
-129.00491446269049
10
-148.2609077358415
20
-129.77385137226091
10
-133.26093773647864
20
-136.76786145116102
42
0.41420728027835269
10
-126.61640122372221
20
-134.34937801983239
10
-125.34850797049143
20
-131.63038233109722
10
-109.251413812097
20
-97.109740681680051
42
0.10964686145912381
10
-108.9703419553714
20
-95.840354702084568
10
-108.99902328464186
20
-39.989456701527892
42
0.41511087507352706
0
LWPOLYLINE
5
126
100
AcDbEntity
8
0
100
AcDbPolyline
90
4
70
1
43
0.0
10
-117.22
20
-41.638800000000003
10
-117.22000000000001
20
-76.31909410269084
10
-121.22000000000001
20
-76.31909410269084
10
-121.22
20
-41.638800000000003
0
LWPOLYLINE
5
127
100
AcDbEntity
8
0
100
AcDbPolyline
90
4
70
1
43
0.0
10
-182.06999999999999
20
-73.714799999999997
10
-182.06999999999999
20
-87.714500000000001
10
-196.06999999999999
20
-87.714500000000001
10
-196.06999999999999
20
-73.714799999999997
0
LWPOLYLINE
5
128
100
AcDbEntity
8
0
100
AcDbPolyline
90
4
70
1
43
0.0
10
-172.54500000000002
20
-102.2898
10
-172.54500000000002
20
-116.2895
10
-186.54499999999999
20
-116.2895
10
-186.54499999999999
20
-102.2898
0
LWPOLYLINE
5
129
100
AcDbEntity
8
0
100
AcDbPolyline
90
4
70
1
43
0.0
10
-157.97
20
-83.239799999999988
10
-143.97
20
-83.239799999999988
10
-143.97
20
-97.239499999999992
10
-157.97
20
-97.239499999999992
0
LWPOLYLINE
5
130
100
AcDbEntity
8
0
100
AcDbPolyline
90
4
70
1
43
0.0
10
-177.02000000000001
20
-54.37700000000001
10
-177.02000000000001
20
-40.377299999999998
10
-163.02000000000004
20
-40.377299999999998
10
-163.02000000000004
20
-54.37700000000001
0
LWPOLYLINE
5
131
100
AcDbEntity
8
0
100
AcDbPolyline
90
4
70
1
43
0.0
10
-161.75299999999999
20
-104.084
10
-148.23000000000002
20
-107.70699999999999
10
-151.85299999999998
20
-121.2298
10
-165.37700000000001
20
-117.6069
0
LWPOLYLINE
5
132
100
AcDbEntity
8
0
100
AcDbPolyline
90
4
70
1
43
0.0
10
-201.12
20
-78.189499999999995
10
-215.12
20
-78.189499999999995
10
-215.12
20
-64.189800000000005
10
-201.12
20
-64.189800000000005
0
LWPOLYLINE
5
133
100
AcDbEntity
8
0
100
AcDbPolyline
90
4
70
1
43
0.0
10
-163.02000000000004
20
-59.427299999999988
10
-163.02000000000004
20
-73.426999999999992
10
-177.02000000000001
20
-73.426999999999992
10
-177.02000000000001
20
-59.427299999999988
0
LWPOLYLINE
5
134
100
AcDbEntity
8
0
100
AcDbPolyline
90
4
70
1
43
0.0
10
-234.17000000000002
20
-102.00199999999998
10
-234.17000000000002
20
-88.002299999999991
10
-220.16999999999999
20
-88.002299999999991
10
-220.16999999999999
20
-102.00199999999998
0
LWPOLYLINE
5
135
100
AcDbEntity
8
0
100
AcDbPolyline
90
4
70
1
43
0.0
10
-143.97
20
-64.189800000000005
10
-143.97
20
-78.189499999999995
10
-157.97
20
-78.189499999999995
10
-157.97
20
-64.189800000000005
0
LWPOLYLINE
5
136
100
AcDbEntity
8
0
100
AcDbPolyline
90
4
70
1
43
0.0
10
-234.17000000000002
20
-82.951999999999998
10
-234.17000000000002
20
-68.952299999999994
10
-220.16999999999999
20
-68.952299999999994
10
-220.16999999999999
20
-82.951999999999998
0
LWPOLYLINE
5
137
100
AcDbEntity
8
0
100
AcDbPolyline
90
4
70
1
43
0.0
10
-220.16999999999999
20
-49.902299999999983
10
-220.16999999999999
20
-63.902000000000001
10
-234.17000000000002
20
-63.902000000000001
10
-234.17000000000002
20
-49.902299999999983
0
LWPOLYLINE
5
138
100
AcDbEntity
8
0
100
AcDbPolyline
90
4
70
1
43
0.0
10
-157.97
20
-59.139499999999998
10
-157.97
20
-45.138800000000003
10
-143.97
20
-45.138800000000003
10
-143.97
20
-59.139499999999998
0
LWPOLYLINE
5
139
100
AcDbEntity
8
0
100
AcDbPolyline
90
4
70
1
43
0.0
10
-163.02000000000004
20
-78.4773
10
-163.02000000000004
20
-92.476999999999975
10
-177.02000000000001
20
-92.476999999999975
10
-177.02000000000001
20
-78.4773
0
LWPOLYLINE
5
140
100
AcDbEntity
8
0
100
AcDbPolyline
90
4
70
1
43
0.0
10
-182.06999999999999
20
-49.614500000000007
10
-196.06999999999999
20
-49.614500000000007
10
-196.06999999999999
20
-35.61399999999999
10
-182.06999999999999
20
-35.61399999999999
0
LWPOLYLINE
5
141
100
AcDbEntity
8
0
100
AcDbPolyline
90
4
70
1
43
0.0
10
-132.59899999999999
20
-128.24949999999998
10
-145.28700000000001
20
-122.33359999999999
10
-139.36900000000003
20
-109.6446
10
-126.682
20
-115.56049999999999
0
LWPOLYLINE
5
142
100
AcDbEntity
8
0
100
AcDbPolyline
90
4
70
1
43
0.0
10
-201.12
20
-59.139499999999998
10
-215.12
20
-59.139499999999998
10
-215.12
20
-45.138800000000003
10
-201.12
20
-45.138800000000003
0
LWPOLYLINE
5
143
100
AcDbEntity
8
0
100
AcDbPolyline
90
4
70
1
43
0.0
10
-182.06999999999999
20
-68.664500000000004
10
-196.06999999999999
20
-68.664500000000004
10
-196.06999999999999
20
-54.664799999999985
10
-182.06999999999999
20
-54.664799999999985
0
LWPOLYLINE
5
144
100
AcDbEntity
8
0
100
AcDbPolyline
90
4
70
1
43
0.0
10
-215.12
20
-97.239499999999992
10
-215.12
20
-83.239799999999988
10
-201.12
20
-83.239799999999988
10
-201.12
20
-97.239499999999992
0
LWPOLYLINE
5
145
100
AcDbEntity
8
0
100
AcDbPolyline
90
4
70
1
43
0.0
10
-127.10000000000001
20
-84.800000000000068
10
-124.89999999999998
20
-84.800000000000068
10
-124.89999999999998
20
-85.800000000000097
10
-127.10000000000001
20
-85.800000000000068
0
LWPOLYLINE
5
146
100
AcDbEntity
8
0
100
AcDbPolyline
90
4
70
1
43
0.0
10
-127.10000000000001
20
-99.200000000000003
10
-127.10000000000001
20
-98.200000000000003
10
-124.89999999999998
20
-98.200000000000003
10
-124.89999999999998
20
-99.200000000000003
0
LWPOLYLINE
5
147
100
AcDbEntity
8
0
100
AcDbPolyline
90
8
70
1
43
0.0
10
-120
20
-93.350000000000009
10
-122.02287792493117
20
-93.350000000000009
42
-0.71659857208447542
10
-129.97712207506885
20
-93.350000000000009
10
-132
20
-93.350000000000009
10
-132
20
-90.649999999999991
10
-129.97712207506888
20
-90.650000000000034
42
-0.71659857208447808
10
-122.02287792493117
20
-90.649999999999963
10
-120
20
-90.649999999999991
0
CIRCLE
5
148
100
AcDbEntity
8
0
100
AcDbCircle
10
-190
20
-95
30
0
40
2.2500000000000142
210
0
220
-0
230
1
6
DASHED
0
CIRCLE
5
149
100
AcDbEntity
8
0
100
AcDbCircle
10
-190
20
-95
30
0
40
6.0000000000000142
210
0
220
0
230
1
6
DASHED
0
CIRCLE
5
150
100
AcDbEntity
8
0
100
AcDbCircle
10
-237.17000000000002
20
-105.002
30
0
40
2.2500000000000142
210
0
220
-0
230
1
6
DASHED
0
LINE
5
151
100
AcDbEntity
8
0
100
AcDbLine
10
-234.77208423834384
20
-110.50200000000009
30
0
11
-237.17000000000002
21
-110.50200000000001
31
0
6
DASHED
0
ARC
5
152
100
AcDbEntity
8
0
100
AcDbCircle
10
-237.17000000000002
20
-105.002
30
0
40
5.5000000000000071
210
0
220
0
230
1
100
AcDbArc
50
180
51
270
6
DASHED
0
LINE
5
153
100
AcDbEntity
8
0
100
AcDbLine
10
-242.67000000000002
20
-105.002
30
0
11
-242.67000000000002
21
-102.60408423834362
31
0
6
DASHED
0
ARC
5
154
100
AcDbEntity
8
0
100
AcDbCircle
10
-237.17000000000002
20
-105.002
30
0
40
6.0000000000000187
210
-0
220
0
230
1
100
AcDbArc
50
-66.443535690900745
51
156.44353569089861
6
DASHED
0
CIRCLE
5
155
100
AcDbEntity
8
0
100
AcDbCircle
10
-237.17000000000002
20
-46.902299999999983
30
0
40
2.2500000000000142
210
0
220
-0
230
1
6
DASHED
0
LINE
5
156
100
AcDbEntity
8
0
100
AcDbLine
10
-237.17000000000002
20
-41.402299999999968
30
0
11
-234.77208423834358
21
-41.40229999999999
31
0
6
DASHED
0
ARC
5
157
100
AcDbEntity
8
0
100
AcDbCircle
10
-237.17000000000002
20
-46.902299999999983
30
0
40
6.0000000000000151
210
0
220
0
230
1
100
AcDbArc
50
-156.44353569089861
51
66.443535690898074
6
DASHED
0
LINE
5
158
100
AcDbEntity
8
0
100
AcDbLine
10
-242.67000000000002
20
-49.300215761656361
30
0
11
-242.67000000000002
21
-46.902299999999983
31
0
6
DASHED
0
ARC
5
159
100
AcDbEntity
8
0
100
AcDbCircle
10
-237.17000000000002
20
-46.902299999999983
30
0
40
5.5000000000000071
210
0
220
-0
230
1
100
AcDbArc
50
90
51
180
6
DASHED
0
CIRCLE
5
160
100
AcDbEntity
8
0
100
AcDbCircle
10
-179.04911633358461
20
-32.614000000000004
30
0
40
2.2500000000000142
210
0
220
-0
230
1
6
DASHED
0
ARC
5
161
100
AcDbEntity
8
0
100
AcDbCircle
10
-172.41607984114765
20
-30.377299999999849
30
0
40
1.5000000000000526
210
0
220
0
230
1
100
AcDbArc
50
198.6344172861867
51
242.06644557372749
6
DASHED
0
ARC
5
162
100
AcDbEntity
8
0
100
AcDbCircle
10
-179.04911633358461
20
-32.614000000000004
30
0
40
6.000000000000016
210
0
220
0
230
1
100
AcDbArc
50
-246.4435356908989
51
8.7376575121298199
6
DASHED
0
LINE
5
163
100
AcDbEntity
8
0
100
AcDbLine
10
-181.44703209524096
20
-27.113999999999983
30
0
11
-179.04911633358461
21
-27.113999999999994
31
0
6
DASHED
0
ARC
5
164
100
AcDbEntity
8
0
100
AcDbCircle
10
-179.04911633358461
20
-32.614000000000004
30
0
40
5.5000000000000107
210
0
220
-0
230
1
100
AcDbArc
50
18.634417286186341
51
90
6
DASHED
0
CIRCLE
5
165
100
AcDbEntity
8
0
100
AcDbCircle
10
-112.8445285892535
20
-41.015206147766278
30
0
40
2.2499999999999964
210
0
220
-0
230
1
6
DASHED
0
LINE
5
166
100
AcDbEntity
8
0
100
AcDbLine
10
-108.49902335057111
20
-39.989199934613531
30
0
11
-108.49722802479062
21
-43.485221897153437
31
0
6
DASHED
0
ARC
5
167
100
AcDbEntity
8
0
100
AcDbCircle
10
-112.8445285892535
20
-41.015206147766278
30
0
40
5.0000000000000009
210
0
220
0
230
1
100
AcDbArc
50
115.48435604835261
51
330.3959616275659
6
DASHED
0
LINE
5
168
100
AcDbEntity
8
0
100
AcDbLine
10
-114.99585179057422
20
-36.501692163799994
30
0
11
-112.01153948827908
21
-36.491019683836484
31
0
6
DASHED
0
ARC
5
169
100
AcDbEntity
8
0
100
AcDbCircle
10
-111.99902288906634
20
-39.99099730301409
30
0
40
3.4999999999999925
210
0
220
-0
230
1
100
AcDbArc
50
0.029423322318705772
51
90.204899953530713
6
DASHED
0
CIRCLE
5
170
100
AcDbEntity
8
0
100
AcDbCircle
10
-131.1479371324163
20
-132.23628022081414
30
0
40
2.2499999999999964
210
0
220
-0
230
1
6
DASHED
0
LINE
5
171
100
AcDbEntity
8
0
100
AcDbLine
10
-133.47223220648738
20
-137.22102218090083
30
0
11
-135.64545881564482
21
-136.20771556699432
31
0
6
DASHED
0
ARC
5
172
100
AcDbEntity
8
0
100
AcDbCircle
10
-131.1479371324163
20
-132.23628022081414
30
0
40
6.0000000000000089
210
0
220
0
230
1
100
AcDbArc
50
-1.4436177530354939
51
221.44538935670488
6
DASHED
0
LINE
5
173
100
AcDbEntity
8
0
100
AcDbLine
10
-125.14984152921534
20
-132.38743952374034
30
0
11
-126.16324763285279
21
-134.56068779973421
31
0
6
DASHED
0
ARC
5
174
100
AcDbEntity
8
0
100
AcDbCircle
10
-131.1479371324163
20
-132.23628022081414
30
0
40
5.4999999999999973
210
0
220
0
230
1
100
AcDbArc
50
245.00121110148021
51
334.99991793786336
6
DASHED
0
ENDSEC
0
SECTION
2
OBJECTS
0
DICTIONARY
5
C
100
AcDbDictionary
3
ACAD_GROUP
350
D
3
ACAD_MLINESTYLE
350
17
0
DICTIONARY
5
D
100
AcDbDictionary
0
DICTIONARY
5
1A
330
C
100
AcDbDictionary
0
DICTIONARY
5
17
100
AcDbDictionary
0
ENDSEC
0
EOF
