0
SECTION
2
HEADER
9
$INSUNITS
70
4
9
$ACADVER
1
AC1014
9
$HANDSEED
5
FFFF
0
ENDSEC
0
SECTION
2
TABLES
0
TABLE
2
VPORT
5
8
100
AcDbSymbolTable
0
ENDTAB
0
TABLE
2
LTYPE
5
5
100
AcDbSymbolTable
0
LTYPE
5
14
100
AcDbSymbolTableRecord
100
AcDbLinetypeTableRecord
2
BYBLOCK
70
0
0
LTYPE
5
15
100
AcDbSymbolTableRecord
100
AcDbLinetypeTableRecord
2
BYLAYER
70
0
0
LTYPE
5
16
100
AcDbSymbolTableRecord
100
AcDbLinetypeTableRecord
2
DASHED
70
0
3
Dashed __ __ __ __ __ __ __ __ __ __ __ __ __ _
72
65
73
2
40
0.75
49
0.5
74
0
49
-0.25
74
0
0
ENDTAB
0
TABLE
2
LAYER
5
2
100
AcDbSymbolTable
70
2
0
LAYER
5
50
100
AcDbSymbolTableRecord
100
AcDbLayerTableRecord
2
0
70
0
62
7
6
CONTINUOUS
0
ENDTAB
0
TABLE
2
STYLE
5
3
100
AcDbSymbolTable
70
1
0
STYLE
5
11
100
AcDbSymbolTableRecord
100
AcDbTextStyleTableRecord
2
STANDARD
70
0
0
ENDTAB
0
TABLE
2
VIEW
5
6
100
AcDbSymbolTable
70
0
0
ENDTAB
0
TABLE
2
UCS
5
7
100
AcDbSymbolTable
70
0
0
ENDTAB
0
TABLE
2
APPID
5
9
100
AcDbSymbolTable
70
2
0
APPID
5
12
100
AcDbSymbolTableRecord
100
AcDbRegAppTableRecord
2
ACAD
70
0
0
ENDTAB
0
TABLE
2
DIMSTYLE
5
A
100
AcDbSymbolTable
70
1
0
ENDTAB
0
TABLE
2
BLOCK_RECORD
5
1
100
AcDbSymbolTable
70
1
0
BLOCK_RECORD
5
1F
100
AcDbSymbolTableRecord
100
AcDbBlockTableRecord
2
*MODEL_SPACE
0
BLOCK_RECORD
5
1B
100
AcDbSymbolTableRecord
100
AcDbBlockTableRecord
2
*PAPER_SPACE
0
ENDTAB
0
ENDSEC
0
SECTION
2
BLOCKS
0
BLOCK
5
20
100
AcDbEntity
100
AcDbBlockBegin
2
*MODEL_SPACE
0
ENDBLK
5
21
100
AcDbEntity
100
AcDbBlockEnd
0
BLOCK
5
1C
100
AcDbEntity
100
AcDbBlockBegin
2
*PAPER_SPACE
0
ENDBLK
5
1D
100
AcDbEntity
100
AcDbBlockEnd
0
ENDSEC
0
SECTION
2
ENTITIES
0
POINT
5
100
100
AcDbEntity
8
0
100
AcDbPoint
10
22.830000000000013
20
102.02011063232703
30
1.4432899320127035e-14
0
POINT
5
101
100
AcDbEntity
8
0
100
AcDbPoint
10
41.879999999999967
20
97.25761063232703
30
1.2212453270876722e-14
0
POINT
5
102
100
AcDbEntity
8
0
100
AcDbPoint
10
60.929999999999964
20
87.732610632327066
30
9.9920072216264089e-15
0
POINT
5
103
100
AcDbEntity
8
0
100
AcDbPoint
10
60.930000000000035
20
68.682610632327041
30
9.9920072216264089e-15
0
POINT
5
104
100
AcDbEntity
8
0
100
AcDbPoint
10
22.830000000000013
20
63.920110632327045
30
1.4432899320127035e-14
0
POINT
5
105
100
AcDbEntity
8
0
100
AcDbPoint
10
41.880000000000024
20
59.157110632327054
30
1.2212453270876722e-14
0
POINT
5
106
100
AcDbEntity
8
0
100
AcDbPoint
10
41.880000000000024
20
78.207610632327061
30
1.2212453270876722e-14
0
POINT
5
107
100
AcDbEntity
8
0
100
AcDbPoint
10
99.029999999999987
20
59.157110632327047
30
5.5511151231257827e-15
0
POINT
5
108
100
AcDbEntity
8
0
100
AcDbPoint
10
60.930000000000035
20
49.632210632327045
30
9.9920072216264089e-15
0
POINT
5
109
100
AcDbEntity
8
0
100
AcDbPoint
10
22.830000000000013
20
82.970110632327049
30
1.4432899320127035e-14
0
POINT
5
110
100
AcDbEntity
8
0
100
AcDbPoint
10
79.979999999999976
20
54.395110632327047
30
7.7715611723760958e-15
0
POINT
5
111
100
AcDbEntity
8
0
100
AcDbPoint
10
114.01575000000005
20
125.96501063232702
30
3.3306690738754696e-15
0
POINT
5
112
100
AcDbEntity
8
0
100
AcDbPoint
10
70.455000000000055
20
116.30761063232703
30
8.8817841970012523e-15
0
POINT
5
113
100
AcDbEntity
8
0
100
AcDbPoint
10
79.97999999999999
20
92.495110632327012
30
7.7715611723760958e-15
0
POINT
5
114
100
AcDbEntity
8
0
100
AcDbPoint
10
99.029999999999987
20
78.207610632327047
30
5.5511151231257827e-15
0
POINT
5
115
100
AcDbEntity
8
0
100
AcDbPoint
10
93.196750000000051
20
119.67488563232705
30
5.5511151231257827e-15
0
POINT
5
116
100
AcDbEntity
8
0
100
AcDbPoint
10
79.979999999999976
20
73.44511063232703
30
7.7715611723760958e-15
0
POINT
5
117
100
AcDbEntity
8
0
100
AcDbPoint
10
99.030000000000001
20
97.257610632327015
30
5.5511151231257827e-15
0
LWPOLYLINE
5
118
100
AcDbEntity
8
0
100
AcDbPolyline
90
4
70
1
43
0.0
10
67.930000000000007
20
94.732460632327047
10
53.930000000000021
20
94.732460632327047
10
53.930000000000007
20
80.732760632327043
10
67.929999999999993
20
80.732760632327043
0
LWPOLYLINE
5
119
100
AcDbEntity
8
0
100
AcDbPolyline
90
4
70
1
43
0.0
10
48.879999999999981
20
66.157460632327044
10
34.879999999999995
20
66.157460632327044
10
34.879999999999995
20
52.156760632327057
10
48.879999999999981
20
52.156760632327057
0
LWPOLYLINE
5
120
100
AcDbEntity
8
0
100
AcDbPolyline
90
34
70
1
43
0.0
10
101.73909226415856
20
136.79181200458794
10
116.73906226352142
20
143.78582208348806
42
-0.41420728027835269
10
123.38359877627784
20
141.36733865215942
10
124.65149202950857
20
138.64834296342428
10
140.74858618790304
20
104.12770131400711
42
-0.10964686145912241
10
141.02965804462863
20
102.85831533441163
10
141.00097671535815
20
47.007417333854924
42
-0.41511087507352712
10
137.99024859732273
20
44.008977118903175
10
96.669581591935909
20
44.156747843285729
42
0.32277406010475501
10
94.76744946394895
20
42.79633206089833
42
-0.32178715558706533
10
90.029999999999859
20
39.395260632326504
10
77.583920158852351
20
39.395260632326938
42
0.3218620277380872
10
75.688766875298938
20
38.034317775184114
42
-0.32186202773810968
10
70.950883666415407
20
34.631960632327015
10
50.919528648464407
20
34.631960632327051
42
-0.4126768814482587
10
45.919597538960488
20
39.605713723680594
10
45.906150822640384
20
42.167259395785628
42
0.41267688144824988
10
43.906178378838803
20
44.156760632327078
10
31.859117205779128
20
44.156760632327057
42
-0.32187034664479119
10
27.121185827002108
20
47.55926063232706
42
0.32187034664478764
10
25.226013275491255
20
48.920260632327043
10
12.830000000000013
20
48.920260632327043
42
-0.41421356237309503
10
7.8300000000000125
20
53.920260632327029
10
7.829999999999977
20
112.01996063232706
42
-0.41421356237309503
10
12.829999999999977
20
117.01996063232706
10
32.879999999999981
20
117.01996063232701
42
-0.40036339762321782
10
37.874356189740595
20
112.25746063232705
10
48.872120158803739
20
112.25746063232705
10
55.454999999999984
20
112.29204223608811
10
55.454999999999984
20
126.30746063232706
42
-0.41421356237308982
10
60.455000000000005
20
131.30746063232706
10
77.164822187748157
20
131.30746063232704
10
82.652751850889899
20
132.3791374229767
10
96.254537237370414
20
136.02287509501753
0
LWPOLYLINE
5
121
100
AcDbEntity
8
0
100
AcDbPolyline
90
4
70
1
43
0.0
10
53.930000000000007
20
75.68246063232705
10
53.930000000000007
20
61.682760632327032
10
67.929999999999993
20
61.682760632327032
10
67.929999999999993
20
75.68246063232705
0
LWPOLYLINE
5
122
100
AcDbEntity
8
0
100
AcDbPolyline
90
4
70
1
43
0.0
10
48.879999999999981
20
71.207760632327052
10
48.879999999999981
20
85.207460632327042
10
34.879999999999995
20
85.207460632327042
10
34.879999999999995
20
71.207760632327052
0
LWPOLYLINE
5
123
100
AcDbEntity
8
0
100
AcDbPolyline
90
4
70
1
43
0.0
10
53.930000000000007
20
56.632460632327053
10
53.930000000000007
20
42.631960632327036
10
67.929999999999993
20
42.631960632327036
10
67.929999999999993
20
56.632460632327053
0
LWPOLYLINE
5
124
100
AcDbEntity
8
0
100
AcDbPolyline
90
4
70
1
43
0.0
10
15.829999999999984
20
89.96996063232703
10
15.829999999999984
20
75.970260632327026
10
29.830000000000041
20
75.97026063232704
10
29.82999999999997
20
89.96996063232703
0
CIRCLE
5
125
100
AcDbEntity
8
0
100
AcDbCircle
10
-12.829999999999977
20
112.01996063232706
30
-1.7114344188058242e-14
40
1.7500000000000071
210
-1.2246467991473532e-16
220
1.4997597826618576e-32
230
-1
0
LWPOLYLINE
5
126
100
AcDbEntity
8
0
100
AcDbPolyline
90
4
70
1
43
0.0
10
86.979999999999947
20
85.495260632327032
10
86.979999999999947
20
99.494960632327022
10
72.980000000000032
20
99.494960632327022
10
72.980000000000032
20
85.495260632327032
0
CIRCLE
5
127
100
AcDbEntity
8
0
100
AcDbCircle
10
-12.830000000000013
20
53.920260632327029
30
-1.7114344188058245e-14
40
1.7500000000000071
210
-1.2246467991473532e-16
220
1.4997597826618576e-32
230
-1
0
ARC
5
128
100
AcDbEntity
8
0
100
AcDbCircle
10
-12.830000000000013
20
53.920260632327029
30
-1.6401954955769323e-14
40
6.000000000000048
210
-1.8917773735966782e-16
220
2.9085871264634571e-17
230
-1
100
AcDbArc
50
23.556464309101283
51
246.44353569089807
6
DASHED
0
LWPOLYLINE
5
129
100
AcDbEntity
8
0
100
AcDbPolyline
90
4
70
1
43
0.0
10
106.03000000000002
20
66.157460632327044
10
92.03000000000003
20
66.157460632327044
10
92.03000000000003
20
52.15676063232705
10
106.03000000000002
20
52.15676063232705
0
ARC
5
130
100
AcDbEntity
8
0
100
AcDbCircle
10
-118.85206286758373
20
139.25424085314117
30
-2.554463348819055e-14
40
5.9999999999999911
210
-1.8505616818232632e-16
220
-1.5773816160237406e-18
230
-1
100
AcDbArc
50
-181.44361775303548
51
41.445389356704688
6
DASHED
0
LWPOLYLINE
5
131
100
AcDbEntity
8
0
100
AcDbPolyline
90
4
70
1
43
0.0
10
110.631
20
116.66256063232703
10
123.31800000000004
20
122.57846063232704
10
117.40100000000001
20
135.26746063232702
10
104.71300000000002
20
129.35156063232702
0
LWPOLYLINE
5
132
100
AcDbEntity
8
0
100
AcDbPolyline
90
4
70
1
43
0.0
10
106.03000000000002
20
85.207460632327056
10
92.030000000000044
20
85.207460632327056
10
92.03000000000003
20
71.207760632327052
10
106.03000000000002
20
71.207760632327052
0
LWPOLYLINE
5
133
100
AcDbEntity
8
0
100
AcDbPolyline
90
4
70
1
43
0.0
10
15.829999999999984
20
70.919960632327047
10
15.829999999999984
20
56.920260632327029
10
29.830000000000041
20
56.920260632327036
10
29.830000000000041
20
70.919960632327047
0
ARC
5
134
100
AcDbEntity
8
0
100
AcDbCircle
10
-12.830000000000013
20
53.920260632327029
30
-1.7114344188058248e-14
40
5.5000000000000071
210
-1.2246467991473532e-16
220
-0
230
-1
100
AcDbArc
50
-90
51
0
6
DASHED
0
LWPOLYLINE
5
135
100
AcDbEntity
8
0
100
AcDbPolyline
90
4
70
1
43
0.0
10
15.83000000000002
20
109.01996063232704
10
15.829999999999984
20
95.020260632327052
10
29.829999999999988
20
95.020260632327052
10
29.829999999999988
20
109.01996063232704
0
LWPOLYLINE
5
136
100
AcDbEntity
8
0
100
AcDbPolyline
90
4
70
1
43
0.0
10
34.879999999999995
20
90.257760632327049
10
48.879999999999981
20
90.257760632327049
10
48.879999999999995
20
104.25746063232705
10
34.88000000000001
20
104.25746063232705
0
LWPOLYLINE
5
137
100
AcDbEntity
8
0
100
AcDbPolyline
90
4
70
1
43
0.0
10
125.10000000000007
20
105.21796063232705
10
125.10000000000007
20
106.21796063232702
10
122.90000000000001
20
106.21796063232702
10
122.90000000000001
20
105.21796063232705
0
LWPOLYLINE
5
138
100
AcDbEntity
8
0
100
AcDbPolyline
90
8
70
1
43
0.0
10
117.99999999999999
20
100.36796063232705
10
117.99999999999999
20
97.667960632327024
10
120.02287792493114
20
97.667960632327066
42
0.71659857208448052
10
127.97712207506885
20
97.667960632327024
10
130.00000000000003
20
97.667960632327052
10
130.00000000000003
20
100.36796063232705
10
127.97712207506888
20
100.36796063232705
42
0.71659857208447553
10
120.02287792493115
20
100.36796063232705
0
LWPOLYLINE
5
139
100
AcDbEntity
8
0
100
AcDbPolyline
90
4
70
1
43
0.0
10
106.03000000000003
20
104.25746063232702
10
92.030000000000044
20
104.25746063232702
10
92.030000000000044
20
90.257760632327035
10
106.03000000000003
20
90.257760632327035
0
LINE
5
140
100
AcDbEntity
8
0
100
AcDbLine
10
12.830000000000013
20
48.420260632327022
30
1.5543122344752192e-14
11
15.227915761656448
21
48.420260632327043
31
1.5543122344752192e-14
6
DASHED
0
LWPOLYLINE
5
141
100
AcDbEntity
8
0
100
AcDbPolyline
90
4
70
1
43
0.0
10
88.247000000000014
20
111.10196063232705
10
101.77000000000001
20
114.72496063232703
10
98.147000000000048
20
128.24776063232702
10
84.623000000000005
20
124.62486063232704
0
LWPOLYLINE
5
142
100
AcDbEntity
8
0
100
AcDbPolyline
90
4
70
1
43
0.0
10
77.455000000000013
20
109.30776063232705
10
77.455000000000013
20
123.30746063232704
10
63.455000000000027
20
123.30746063232706
10
63.455000000000027
20
109.30776063232706
0
LINE
5
143
100
AcDbEntity
8
0
100
AcDbLine
10
15.227915761656199
20
117.51996063232713
30
1.5543122344752192e-14
11
12.829999999999977
21
117.51996063232707
31
1.5543122344752192e-14
6
DASHED
0
LWPOLYLINE
5
144
100
AcDbEntity
8
0
100
AcDbPolyline
90
4
70
1
43
0.0
10
113.28000000000003
20
48.65676063232705
10
117.28000000000002
20
48.65676063232705
10
117.28000000000003
20
83.337054735017858
10
113.28000000000003
20
83.337054735017858
0
LWPOLYLINE
5
145
100
AcDbEntity
8
0
100
AcDbPolyline
90
4
70
1
43
0.0
10
86.979999999999947
20
80.44496063232701
10
72.980000000000018
20
80.44496063232701
10
72.980000000000018
20
66.445260632327035
10
86.979999999999933
20
66.445260632327035
0
LINE
5
146
100
AcDbEntity
8
0
100
AcDbLine
10
141.50097664942891
20
47.007160566940563
30
0
11
141.50277197520938
21
50.503182529480469
31
0
6
DASHED
0
CIRCLE
5
147
100
AcDbEntity
8
0
100
AcDbCircle
10
-137.15547141074651
20
48.03316678009331
30
-1.7906923929496861e-14
40
2.2499999999999964
210
-1.2246467991473532e-16
220
1.4997597826618576e-32
230
-1
6
DASHED
0
LWPOLYLINE
5
148
100
AcDbEntity
8
0
100
AcDbPolyline
90
4
70
1
43
0.0
10
128.78000000000003
20
83.337054735017887
10
128.78
20
48.656760632327043
10
132.77999999999997
20
48.656760632327043
10
132.78
20
83.337054735017887
0
CIRCLE
5
149
100
AcDbEntity
8
0
100
AcDbCircle
10
-70.950883666415407
20
39.631960632327043
30
-1.7570761454876436e-14
40
1.7499999999999716
210
-1.2246467991473532e-16
220
1.4997597826618576e-32
230
-1
0
LWPOLYLINE
5
150
100
AcDbEntity
8
0
100
AcDbPolyline
90
4
70
1
43
0.0
10
125.10000000000007
20
91.817960632327114
10
125.10000000000007
20
92.817960632327129
10
122.90000000000001
20
92.8179606323271
10
122.90000000000001
20
91.817960632327114
0
CIRCLE
5
151
100
AcDbEntity
8
0
100
AcDbCircle
10
-12.829999999999977
20
112.01996063232706
30
-1.7114344188058242e-14
40
2.2500000000000142
210
-1.2246467991473532e-16
220
1.4997597826618576e-32
230
-1
6
DASHED
0
CIRCLE
5
152
100
AcDbEntity
8
0
100
AcDbCircle
10
-137.15547141074651
20
48.03316678009331
30
-1.7906923929496861e-14
40
1.7500000000000071
210
-1.2246467991473532e-16
220
1.4997597826618576e-32
230
-1
0
LWPOLYLINE
5
153
100
AcDbEntity
8
0
100
AcDbPolyline
90
4
70
1
43
0.0
10
86.979999999999933
20
61.394960632327056
10
72.980000000000018
20
61.394960632327056
10
72.980000000000018
20
47.395260632327037
10
86.979999999999933
20
47.395260632327037
0
ARC
5
154
100
AcDbEntity
8
0
100
AcDbCircle
10
-137.15547141074651
20
48.03316678009331
30
-1.2512672440260906e-14
40
5.0000000000000124
210
-9.9793080208444295e-17
220
4.7565415670880472e-17
230
-1
100
AcDbArc
50
-64.515643951647263
51
150.39596162756584
6
DASHED
0
ARC
5
155
100
AcDbEntity
8
0
100
AcDbCircle
10
-70.950883666415407
20
39.631960632327043
30
-1.4404861876993029e-14
40
6.000000000000016
210
-1.0290434909502069e-16
220
4.4864720115988762e-17
230
-1
100
AcDbArc
50
-66.443535690898813
51
188.73765751212972
6
DASHED
0
ARC
5
156
100
AcDbEntity
8
0
100
AcDbCircle
10
-138.00097711093366
20
47.008957935341122
30
-2.9608383846311724e-18
40
3.5000000000000284
210
-3.2296017166544403e-23
220
-6.2889747668343942e-20
230
-1
100
AcDbArc
50
180.02942332231871
51
270.20489995353074
6
DASHED
0
ARC
5
157
100
AcDbEntity
8
0
100
AcDbCircle
10
-70.950883666415407
20
39.631960632327043
30
-2.2253450838910384e-14
40
5.500000000000008
210
-2.037800802419899e-16
220
2.7420044517976228e-17
230
-1
100
AcDbArc
50
198.63441728618631
51
270
6
DASHED
0
LINE
5
158
100
AcDbEntity
8
0
100
AcDbLine
10
116.52776779351268
20
144.23898281322786
30
3.3306690738754696e-15
11
114.35454118435518
21
143.22567619932136
31
3.3306690738754696e-15
6
DASHED
0
LINE
5
159
100
AcDbEntity
8
0
100
AcDbLine
10
135.00414820942578
20
43.519652796127026
30
1.1102230246251565e-15
11
137.98846051172092
21
43.508980316163523
31
0
6
DASHED
0
LINE
5
160
100
AcDbEntity
8
0
100
AcDbLine
10
124.85015847078469
20
139.40540015606737
30
2.2204460492503131e-15
11
123.83675236714726
21
141.57864843206124
31
2.2204460492503131e-15
6
DASHED
0
CIRCLE
5
161
100
AcDbEntity
8
0
100
AcDbCircle
10
-118.85206286758373
20
139.25424085314117
30
-1.7885848910160105e-14
40
2.2499999999999964
210
-1.2246467991473532e-16
220
1.4997597826618576e-32
230
-1
6
DASHED
0
CIRCLE
5
162
100
AcDbEntity
8
0
100
AcDbCircle
10
-60.000000000000014
20
102.01796063232706
30
-1.733988801651053e-14
40
6.0000000000000142
210
-1.2246467991473532e-16
220
1.4997597826618576e-32
230
-1
6
DASHED
0
LINE
5
163
100
AcDbEntity
8
0
100
AcDbLine
10
7.3299999999999699
20
56.318176393983414
30
1.6653345369377348e-14
11
7.3299999999999699
21
53.920260632327029
31
1.6653345369377348e-14
6
DASHED
0
CIRCLE
5
164
100
AcDbEntity
8
0
100
AcDbCircle
10
-12.830000000000013
20
53.920260632327029
30
-1.7114344188058245e-14
40
2.2500000000000142
210
-1.2246467991473532e-16
220
1.4997597826618576e-32
230
-1
6
DASHED
0
ARC
5
165
100
AcDbEntity
8
0
100
AcDbCircle
10
-12.829999999999977
20
112.01996063232706
30
-1.1837640962468142e-14
40
6.000000000000016
210
-1.0290434909502305e-16
220
4.4864720115986617e-17
230
-1
100
AcDbArc
50
113.55646430909977
51
336.44353569089839
6
DASHED
0
LINE
5
166
100
AcDbEntity
8
0
100
AcDbLine
10
7.3300000000000054
20
112.01996063232706
30
1.6653345369377348e-14
11
7.3300000000000054
21
109.62204487067066
31
1.6653345369377348e-14
6
DASHED
0
CIRCLE
5
167
100
AcDbEntity
8
0
100
AcDbCircle
10
-70.950883666415407
20
39.631960632327043
30
-1.7570761454876436e-14
40
2.2500000000000142
210
-1.2246467991473532e-16
220
1.4997597826618576e-32
230
-1
6
DASHED
0
ARC
5
168
100
AcDbEntity
8
0
100
AcDbCircle
10
-12.829999999999977
20
112.01996063232706
30
-1.8132969873105065e-14
40
5.4999999999999716
210
-2.0185873175002952e-16
220
1.4997597826618576e-32
230
-1
100
AcDbArc
50
0
51
90
6
DASHED
0
CIRCLE
5
169
100
AcDbEntity
8
0
100
AcDbCircle
10
-60.000000000000014
20
102.01796063232706
30
-1.733988801651053e-14
40
2.2500000000000142
210
-1.2246467991473532e-16
220
1.4997597826618576e-32
230
-1
6
DASHED
0
ARC
5
170
100
AcDbEntity
8
0
100
AcDbCircle
10
-118.85206286758373
20
139.25424085314117
30
-2.1818163614426529e-14
40
5.4999999999999813
210
-1.0059371235893575e-16
220
-4.6905029787003854e-17
230
-1
100
AcDbArc
50
65.001211101480521
51
154.99991793786339
6
DASHED
0
CIRCLE
5
171
100
AcDbEntity
8
0
100
AcDbCircle
10
-118.85206286758373
20
139.25424085314117
30
-1.7885848910160105e-14
40
1.7500000000000071
210
-1.2246467991473532e-16
220
1.4997597826618576e-32
230
-1
0
CIRCLE
5
172
100
AcDbEntity
8
0
100
AcDbCircle
10
-60.000000000000014
20
102.01796063232706
30
-1.733988801651053e-14
40
1.7499999999999716
210
-1.2246467991473532e-16
220
1.4997597826618576e-32
230
-1
0
ARC
5
173
100
AcDbEntity
8
0
100
AcDbCircle
10
-77.583920158852351
20
37.395260632326888
30
-1.0128229544837403e-14
40
1.5000000000000542
210
-1.2503461096995478e-17
220
-3.7079587668497876e-17
230
-1
100
AcDbArc
50
18.634417286186938
51
62.066445573728664
6
DASHED
0
LINE
5
174
100
AcDbEntity
8
0
100
AcDbLine
10
68.552967904759043
20
34.131960632327029
30
8.8817841970012523e-15
11
70.950883666415407
21
34.131960632327036
31
8.8817841970012523e-15
6
DASHED
0
ENDSEC
0
SECTION
2
OBJECTS
0
DICTIONARY
5
C
100
AcDbDictionary
3
ACAD_GROUP
350
D
3
ACAD_MLINESTYLE
350
17
0
DICTIONARY
5
D
100
AcDbDictionary
0
DICTIONARY
5
1A
330
C
100
AcDbDictionary
0
DICTIONARY
5
17
100
AcDbDictionary
0
ENDSEC
0
EOF
