0
SECTION
2
HEADER
9
$INSUNITS
70
4
9
$ACADVER
1
AC1014
9
$HANDSEED
5
FFFF
0
ENDSEC
0
SECTION
2
TABLES
0
TABLE
2
VPORT
5
8
100
AcDbSymbolTable
0
ENDTAB
0
TABLE
2
LTYPE
5
5
100
AcDbSymbolTable
0
LTYPE
5
14
100
AcDbSymbolTableRecord
100
AcDbLinetypeTableRecord
2
BYBLOCK
70
0
0
LTYPE
5
15
100
AcDbSymbolTableRecord
100
AcDbLinetypeTableRecord
2
BYLAYER
70
0
0
LTYPE
5
16
100
AcDbSymbolTableRecord
100
AcDbLinetypeTableRecord
2
DASHED
70
0
3
Dashed __ __ __ __ __ __ __ __ __ __ __ __ __ _
72
65
73
2
40
0.75
49
0.5
74
0
49
-0.25
74
0
0
ENDTAB
0
TABLE
2
LAYER
5
2
100
AcDbSymbolTable
70
2
0
LAYER
5
50
100
AcDbSymbolTableRecord
100
AcDbLayerTableRecord
2
0
70
0
62
7
6
CONTINUOUS
0
ENDTAB
0
TABLE
2
STYLE
5
3
100
AcDbSymbolTable
70
1
0
STYLE
5
11
100
AcDbSymbolTableRecord
100
AcDbTextStyleTableRecord
2
STANDARD
70
0
0
ENDTAB
0
TABLE
2
VIEW
5
6
100
AcDbSymbolTable
70
0
0
ENDTAB
0
TABLE
2
UCS
5
7
100
AcDbSymbolTable
70
0
0
ENDTAB
0
TABLE
2
APPID
5
9
100
AcDbSymbolTable
70
2
0
APPID
5
12
100
AcDbSymbolTableRecord
100
AcDbRegAppTableRecord
2
ACAD
70
0
0
ENDTAB
0
TABLE
2
DIMSTYLE
5
A
100
AcDbSymbolTable
70
1
0
ENDTAB
0
TABLE
2
BLOCK_RECORD
5
1
100
AcDbSymbolTable
70
1
0
BLOCK_RECORD
5
1F
100
AcDbSymbolTableRecord
100
AcDbBlockTableRecord
2
*MODEL_SPACE
0
BLOCK_RECORD
5
1B
100
AcDbSymbolTableRecord
100
AcDbBlockTableRecord
2
*PAPER_SPACE
0
ENDTAB
0
ENDSEC
0
SECTION
2
BLOCKS
0
BLOCK
5
20
100
AcDbEntity
100
AcDbBlockBegin
2
*MODEL_SPACE
0
ENDBLK
5
21
100
AcDbEntity
100
AcDbBlockEnd
0
BLOCK
5
1C
100
AcDbEntity
100
AcDbBlockBegin
2
*PAPER_SPACE
0
ENDBLK
5
1D
100
AcDbEntity
100
AcDbBlockEnd
0
ENDSEC
0
SECTION
2
ENTITIES
0
CIRCLE
5
100
100
AcDbEntity
8
0
100
AcDbCircle
10
64.34000000000006
20
-91.629249580710933
30
0
40
6.0000000000000142
210
0
220
0
230
1
0
LWPOLYLINE
5
101
100
AcDbEntity
8
0
100
AcDbPolyline
90
33
70
1
43
0.0
10
99.10744946394901
20
-32.407621009282181
42
0.32277406010475962
10
101.00958159193597
20
-33.768036791669573
10
138.50955778746967
20
-33.633929599110985
42
1.126759797538136
10
145.34314320009531
20
-40.837482787781553
10
145.36965804462869
20
-92.469604282795515
42
-0.10964686145912499
10
145.08858618790308
20
-93.738990262390999
10
129.12526886835872
20
-127.9727439636175
42
1.2227110969575594
10
118.07318994695039
20
-131.99556814352769
10
106.07909226415858
20
-126.40310095297181
10
100.59453723737045
20
-125.63416404340143
10
86.992751850889945
20
-121.9904263713606
10
81.504822187748204
20
-120.91874958071091
10
64.795000000000073
20
-120.91874958071095
42
-0.41421356237309193
10
59.795000000000073
20
-115.91874958071094
10
59.795000000000073
20
-101.90333118447199
10
53.212120158803828
20
-101.86874958071093
10
42.21435618974067
20
-101.86874958071093
42
-0.40036339762321577
10
37.220000000000063
20
-106.63124958071093
10
20.486624790355435
20
-106.63124958071094
42
1.2226903149070167
10
12.170000000000037
20
-98.314624790355509
10
12.170000000000037
20
-46.848174371066335
42
1.2226903149070167
10
20.486624790355435
20
-38.531549580710902
10
29.56601327549135
20
-38.531549580710937
42
0.32187034664478464
10
31.461185827002176
20
-37.170549580710947
42
-0.3218703466447918
10
36.199117205779189
20
-33.768049580710937
10
48.246178378838863
20
-33.768049580710972
42
0.41267688144825249
10
50.246150822640431
20
-31.778548344169508
10
50.259597538960548
20
-29.217002672064496
42
-0.41267688144825976
10
55.259528648464467
20
-24.243249580710959
10
71.974258876060034
20
-24.243249580710923
42
1.7271433009658517
10
81.281081516983335
20
-28.900423515405997
42
0.081989974816300604
10
81.923920158852454
20
-29.00654958071086
10
94.369999999999848
20
-29.006549580710448
42
-0.32178715558707094
0
ENDSEC
0
SECTION
2
OBJECTS
0
DICTIONARY
5
C
100
AcDbDictionary
3
ACAD_GROUP
350
D
3
ACAD_MLINESTYLE
350
17
0
DICTIONARY
5
D
100
AcDbDictionary
0
DICTIONARY
5
1A
330
C
100
AcDbDictionary
0
DICTIONARY
5
17
100
AcDbDictionary
0
ENDSEC
0
EOF
