0
SECTION
2
HEADER
9
$INSUNITS
70
4
9
$ACADVER
1
AC1014
9
$HANDSEED
5
FFFF
0
ENDSEC
0
SECTION
2
TABLES
0
TABLE
2
VPORT
5
8
100
AcDbSymbolTable
0
ENDTAB
0
TABLE
2
LTYPE
5
5
100
AcDbSymbolTable
0
LTYPE
5
14
100
AcDbSymbolTableRecord
100
AcDbLinetypeTableRecord
2
BYBLOCK
70
0
0
LTYPE
5
15
100
AcDbSymbolTableRecord
100
AcDbLinetypeTableRecord
2
BYLAYER
70
0
0
LTYPE
5
16
100
AcDbSymbolTableRecord
100
AcDbLinetypeTableRecord
2
DASHED
70
0
3
Dashed __ __ __ __ __ __ __ __ __ __ __ __ __ _
72
65
73
2
40
0.75
49
0.5
74
0
49
-0.25
74
0
0
ENDTAB
0
TABLE
2
LAYER
5
2
100
AcDbSymbolTable
70
2
0
LAYER
5
50
100
AcDbSymbolTableRecord
100
AcDbLayerTableRecord
2
0
70
0
62
7
6
CONTINUOUS
0
ENDTAB
0
TABLE
2
STYLE
5
3
100
AcDbSymbolTable
70
1
0
STYLE
5
11
100
AcDbSymbolTableRecord
100
AcDbTextStyleTableRecord
2
STANDARD
70
0
0
ENDTAB
0
TABLE
2
VIEW
5
6
100
AcDbSymbolTable
70
0
0
ENDTAB
0
TABLE
2
UCS
5
7
100
AcDbSymbolTable
70
0
0
ENDTAB
0
TABLE
2
APPID
5
9
100
AcDbSymbolTable
70
2
0
APPID
5
12
100
AcDbSymbolTableRecord
100
AcDbRegAppTableRecord
2
ACAD
70
0
0
ENDTAB
0
TABLE
2
DIMSTYLE
5
A
100
AcDbSymbolTable
70
1
0
ENDTAB
0
TABLE
2
BLOCK_RECORD
5
1
100
AcDbSymbolTable
70
1
0
BLOCK_RECORD
5
1F
100
AcDbSymbolTableRecord
100
AcDbBlockTableRecord
2
*MODEL_SPACE
0
BLOCK_RECORD
5
1B
100
AcDbSymbolTableRecord
100
AcDbBlockTableRecord
2
*PAPER_SPACE
0
ENDTAB
0
ENDSEC
0
SECTION
2
BLOCKS
0
BLOCK
5
20
100
AcDbEntity
100
AcDbBlockBegin
2
*MODEL_SPACE
0
ENDBLK
5
21
100
AcDbEntity
100
AcDbBlockEnd
0
BLOCK
5
1C
100
AcDbEntity
100
AcDbBlockBegin
2
*PAPER_SPACE
0
ENDBLK
5
1D
100
AcDbEntity
100
AcDbBlockEnd
0
ENDSEC
0
SECTION
2
ENTITIES
0
LINE
5
100
100
AcDbEntity
8
0
100
AcDbLine
10
-9.7080994076290512
20
58.000000000000007
30
0
11
-8
21
58.000000000000007
31
0
0
LINE
5
101
100
AcDbEntity
8
0
100
AcDbLine
10
-3.0000000000000018
20
63
30
0
11
-2.9999999999999991
21
64.343146316751756
31
0
0
LINE
5
102
100
AcDbEntity
8
0
100
AcDbLine
10
-2.9999999999999991
20
64.343146316751756
30
0
11
74.000000715255709
21
64.343146316751756
31
0
0
LINE
5
103
100
AcDbEntity
8
0
100
AcDbLine
10
74.000000715255709
20
64.343146316751756
30
0
11
74.000000715255709
21
63
31
0
0
LINE
5
104
100
AcDbEntity
8
0
100
AcDbLine
10
79.000000715255723
20
58
30
0
11
80.708100465611423
21
58
31
0
0
LINE
5
105
100
AcDbEntity
8
0
100
AcDbLine
10
80.708100465611423
20
58
30
0
11
80.708100465611423
21
4.699999925494188
31
0
0
LINE
5
106
100
AcDbEntity
8
0
100
AcDbLine
10
68.000001132488251
20
-8.000000074505806
30
0
11
2.9999999254941914
21
-8.0000000745058113
31
0
0
LINE
5
107
100
AcDbEntity
8
0
100
AcDbLine
10
-9.7080994076290512
20
58.000000000000007
30
0
11
-9.7080994076289837
21
4.6999999254941951
31
0
0
ARC
5
108
100
AcDbEntity
8
0
100
AcDbCircle
10
-9.7080994076289837
20
-7.4505804859015257e-08
30
0
40
4.6999999999999993
210
-0
220
0
230
1
100
AcDbArc
50
-41.039107444900417
51
90
0
ARC
5
109
100
AcDbEntity
8
0
100
AcDbCircle
10
2.9999999254941967
20
2.99999992549421
30
0
40
11.000000000000011
210
0
220
0
230
1
100
AcDbArc
50
213.59118787360654
51
270
0
LWPOLYLINE
5
110
100
AcDbEntity
8
0
100
AcDbPolyline
90
2
70
1
43
0.0
10
68.000001132488251
20
-8.000000074505806
42
0.25122351495334777
10
77.163070903527299
20
-3.0858979023591893
42
-0.2512235149533476
0
ARC
5
111
100
AcDbEntity
8
0
100
AcDbCircle
10
79.000000715255723
20
63.000000000000014
30
0
40
5.0000000000000178
210
0
220
0
230
1
100
AcDbArc
50
180
51
270
0
ARC
5
112
100
AcDbEntity
8
0
100
AcDbCircle
10
-8.0000000000000107
20
63.000000000000014
30
0
40
5.0000000000000089
210
0
220
0
230
1
100
AcDbArc
50
270.00000000000011
51
360
0
ARC
5
113
100
AcDbEntity
8
0
100
AcDbCircle
10
80.708100465611466
20
-7.4505864255947074e-08
30
0
40
4.7000000000000526
210
0
220
0
230
1
100
AcDbArc
50
90.000000000000526
51
221.03910744489977
0
ENDSEC
0
SECTION
2
OBJECTS
0
DICTIONARY
5
C
100
AcDbDictionary
3
ACAD_GROUP
350
D
3
ACAD_MLINESTYLE
350
17
0
DICTIONARY
5
D
100
AcDbDictionary
0
DICTIONARY
5
1A
330
C
100
AcDbDictionary
0
DICTIONARY
5
17
100
AcDbDictionary
0
ENDSEC
0
EOF
