0
SECTION
2
HEADER
9
$INSUNITS
70
4
0
ENDSEC
0
SECTION
2
TABLES
0
TABLE
2
LTYPE
0
LTYPE
72
65
70
0
2
CONTINUOUS
3
______
73
0
40
0
0
LTYPE
72
65
70
0
2
DASHED
3
_ _ _ 
73
2
40
7.5
49
5
49
-2.5
0
LTYPE
72
65
70
0
2
DOTTED
3
. . . 
73
2
40
1.5
49
0.5
49
-1
0
ENDTAB
0
TABLE
2
LAYER
0
ENDTAB
0
ENDSEC
0
SECTION
2
ENTITIES
0
LINE
8
0
6
CONTINUOUS
10
-9
20
-12
11
9
21
-12
0
ARC
8
0
6
CONTINUOUS
10
9
20
-9
40
3
50
270
51
360
0
LINE
8
0
6
CONTINUOUS
10
12
20
-9
11
12
21
-7.3999615
0
LINE
8
0
6
CONTINUOUS
10
12
20
-7.3999615
11
29.1409988
21
-8.5985769
0
ARC
8
0
6
CONTINUOUS
10
29.3502682
20
-5.6058847
40
3
50
266.0000001
51
355.9999995
0
LINE
8
0
6
CONTINUOUS
10
32.3429603
20
-5.8151541
11
32.4824733
21
-3.820026
0
LINE
8
0
6
CONTINUOUS
10
32.4824733
20
-3.820026
11
46.44837
21
-4.7966166
0
LINE
8
0
6
CONTINUOUS
10
46.44837
20
-4.7966166
11
46.308857
21
-6.7917448
0
ARC
8
0
6
CONTINUOUS
10
49.3015492
20
-7.0010142
40
3
50
176
51
266.0000001
0
LINE
8
0
6
CONTINUOUS
10
49.0922798
20
-9.9937064
11
56.0752282
21
-10.4820017
0
LINE
8
0
6
CONTINUOUS
10
58.5308419
20
-32.7074367
11
59.7864584
21
-14.7512839
0
ARC
8
0
6
CONTINUOUS
10
61.5235341
20
-32.9167061
40
3
50
176.0000005
51
266.0000001
0
LINE
8
0
6
CONTINUOUS
10
61.3142647
20
-35.9093983
11
79.2704176
21
-37.1650148
0
ARC
8
0
6
CONTINUOUS
10
79.479687
20
-34.1723226
40
3
50
266.0000001
51
280.6571872
0
LINE
8
0
6
CONTINUOUS
10
80.034484
20
-37.1205764
11
100.9628185
21
-51.2369163
0
LINE
8
0
6
CONTINUOUS
10
101.9621148
20
-52.2019255
11
112.8504447
21
-67.1884258
0
ARC
8
0
6
CONTINUOUS
10
115.2774957
20
-65.4250701
40
3
50
215.9999999
51
306.0000005
0
LINE
8
0
6
CONTINUOUS
10
117.0408515
20
-67.8521211
11
136.4572594
21
-53.7452751
0
ARC
8
0
6
CONTINUOUS
10
134.6939036
20
-51.3182241
40
3
50
305.9999998
51
396.0000005
0
LINE
8
0
6
CONTINUOUS
10
121.2507528
20
-27.7114094
11
137.1209546
21
-49.5548683
0
ARC
8
0
6
CONTINUOUS
10
118.8237018
20
-29.4747652
40
3
50
35.9999999
51
66.5154209
0
ARC
8
0
6
CONTINUOUS
10
118.0592089
20
-28.9944746
40
3
50
409.2066154
51
56.0000001
0
LINE
8
0
6
CONTINUOUS
10
110.523487
20
-20.2929122
11
119.7367876
21
-26.5073619
0
LINE
8
0
6
CONTINUOUS
10
108.7700023
20
-16.6977359
11
112.503703
21
36.6966717
0
LINE
8
0
6
CONTINUOUS
10
112.5037029
20
36.6966717
11
112.5734595
21
37.6942356
0
LINE
8
0
6
CONTINUOUS
10
112.5734595
20
37.6942358
11
112.9222418
21
42.6820561
0
ARC
8
0
6
CONTINUOUS
10
107.9344216
20
43.0308384
40
5
50
355.9999987
51
445.9999987
0
LINE
8
0
6
CONTINUOUS
10
55.4123092
20
51.7157519
11
108.283204
21
48.0186587
0
LINE
8
0
6
CONTINUOUS
10
55.4123092
20
51.7157519
11
55.5518222
21
53.7108801
0
ARC
8
0
6
CONTINUOUS
10
52.55913
20
53.9201495
40
3
50
356.0000004
51
445.9999998
0
LINE
8
0
6
CONTINUOUS
10
52.7683994
20
56.9128417
11
34.8122465
21
58.1684582
0
ARC
8
0
6
CONTINUOUS
10
34.6029771
20
55.175766
40
3
50
86.0000001
51
176.0000003
0
LINE
8
0
6
CONTINUOUS
10
31.610231
20
55.3842627
11
31.470772
21
53.3899073
0
LINE
8
0
6
CONTINUOUS
10
15.5097472
20
54.5060109
11
31.470772
21
53.3899073
0
ARC
8
0
6
CONTINUOUS
10
15.3004778
20
51.5133187
40
3
50
86.0000001
51
176.0000003
0
LINE
8
0
6
CONTINUOUS
10
12.3077317
20
51.7218155
11
12.1873306
21
50
0
LINE
8
0
6
CONTINUOUS
10
-9
20
50
11
12.1873306
21
50
0
ARC
8
0
6
CONTINUOUS
10
-9
20
47
40
3
50
90
51
180
0
LINE
8
0
6
CONTINUOUS
10
-12
20
-9
11
-12
21
47
0
ARC
8
0
6
CONTINUOUS
10
-9
20
-9
40
3
50
180
51
270
0
ARC
8
0
6
CONTINUOUS
10
55.7962023
20
-14.4722579
40
4
50
355.9999987
51
85.9999987
0
ARC
8
0
6
CONTINUOUS
10
98.7260469
20
-54.5530666
40
4
50
36.000002
51
56.000001
0
ARC
8
0
6
CONTINUOUS
10
112.7602585
20
-16.9767619
40
4
50
175.9999987
51
236.000001
0
ENDSEC
0
EOF