0
SECTION
2
HEADER
9
$INSUNITS
70
4
0
ENDSEC
0
SECTION
2
TABLES
0
TABLE
2
LTYPE
0
LTYPE
72
65
70
0
2
CONTINUOUS
3
______
73
0
40
0
0
LTYPE
72
65
70
0
2
DASHED
3
_ _ _ 
73
2
40
7.5
49
5
49
-2.5
0
LTYPE
72
65
70
0
2
DOTTED
3
. . . 
73
2
40
1.5
49
0.5
49
-1
0
ENDTAB
0
TABLE
2
LAYER
0
ENDTAB
0
ENDSEC
0
SECTION
2
ENTITIES
0
LINE
8
0
6
CONTINUOUS
10
348.675483
20
-12
11
366.675483
21
-12
0
ARC
8
0
6
CONTINUOUS
10
366.675483
20
-9
40
3
50
270
51
360
0
LINE
8
0
6
CONTINUOUS
10
369.675483
20
-9
11
369.675483
21
47
0
ARC
8
0
6
CONTINUOUS
10
366.675483
20
47
40
3
50
0
51
90
0
LINE
8
0
6
CONTINUOUS
10
345.4881524
20
50
11
366.675483
21
50
0
LINE
8
0
6
CONTINUOUS
10
345.4881524
20
50
11
345.3676973
21
51.7225881
0
ARC
8
0
6
CONTINUOUS
10
342.3750052
20
51.5133187
40
3
50
4.0000003
51
93.9999999
0
LINE
8
0
6
CONTINUOUS
10
326.204711
20
53.3899073
11
342.1657358
21
54.5060108
0
LINE
8
0
6
CONTINUOUS
10
326.204711
20
53.3899073
11
326.0651981
21
55.3850354
0
ARC
8
0
6
CONTINUOUS
10
323.0725059
20
55.175766
40
3
50
4.0000003
51
93.9999994
0
LINE
8
0
6
CONTINUOUS
10
322.8632365
20
58.1684582
11
304.9070836
21
56.9128417
0
ARC
8
0
6
CONTINUOUS
10
305.116353
20
53.9201495
40
3
50
93.9999999
51
183.9999995
0
LINE
8
0
6
CONTINUOUS
10
302.1236608
20
53.7108801
11
302.2631738
21
51.7157519
0
LINE
8
0
6
CONTINUOUS
10
249.392279
20
48.0186587
11
302.2631738
21
51.7157519
0
ARC
8
0
6
CONTINUOUS
10
249.7410614
20
43.0308384
40
5
50
94.0000013
51
184.0000013
0
LINE
8
0
6
CONTINUOUS
10
244.7532411
20
42.6820561
11
245.1020235
21
37.6942358
0
LINE
8
0
6
CONTINUOUS
10
245.1020776
20
37.693463
11
245.1717801
21
36.6966717
0
LINE
8
0
6
CONTINUOUS
10
245.17178
20
36.6966718
11
248.9054807
21
-16.6977358
0
LINE
8
0
6
CONTINUOUS
10
237.9386954
20
-26.5073619
11
247.1519961
21
-20.2929121
0
ARC
8
0
6
CONTINUOUS
10
239.6162741
20
-28.9944746
40
3
50
123.9999999
51
130.7933846
0
ARC
8
0
6
CONTINUOUS
10
238.8517812
20
-29.4747652
40
3
50
473.4845791
51
144.0000001
0
LINE
8
0
6
CONTINUOUS
10
220.5545284
20
-49.5548683
11
236.4247302
21
-27.7114094
0
ARC
8
0
6
CONTINUOUS
10
222.9815794
20
-51.3182241
40
3
50
143.9999995
51
234.0000002
0
LINE
8
0
6
CONTINUOUS
10
221.2182236
20
-53.7452751
11
240.6346315
21
-67.8521211
0
ARC
8
0
6
CONTINUOUS
10
242.3979873
20
-65.4250701
40
3
50
233.9999995
51
324.0000001
0
LINE
8
0
6
CONTINUOUS
10
244.8250383
20
-67.1884259
11
255.7133683
21
-52.2019253
0
LINE
8
0
6
CONTINUOUS
10
256.7126647
20
-51.2369161
11
277.6409991
21
-37.1205764
0
ARC
8
0
6
CONTINUOUS
10
278.195796
20
-34.1723226
40
3
50
259.3428147
51
273.9999999
0
LINE
8
0
6
CONTINUOUS
10
278.4050654
20
-37.1650148
11
296.3612183
21
-35.9093983
0
ARC
8
0
6
CONTINUOUS
10
296.1519489
20
-32.9167061
40
3
50
273.9999999
51
363.9999995
0
LINE
8
0
6
CONTINUOUS
10
297.8890246
20
-14.7512839
11
299.1446411
21
-32.7074367
0
LINE
8
0
6
CONTINUOUS
10
301.6002548
20
-10.4820017
11
308.5832033
21
-9.9937064
0
ARC
8
0
6
CONTINUOUS
10
308.3739338
20
-7.0010142
40
3
50
273.9999999
51
363.9999991
0
LINE
8
0
6
CONTINUOUS
10
311.366626
20
-6.7917448
11
311.227113
21
-4.7966167
0
LINE
8
0
6
CONTINUOUS
10
311.227113
20
-4.7966167
11
325.1930097
21
-3.820026
0
LINE
8
0
6
CONTINUOUS
10
325.1930097
20
-3.820026
11
325.3325226
21
-5.8151541
0
ARC
8
0
6
CONTINUOUS
10
328.3252148
20
-5.6058847
40
3
50
184.0000002
51
273.9999999
0
LINE
8
0
6
CONTINUOUS
10
328.5344842
20
-8.5985769
11
345.675483
21
-7.3999615
0
LINE
8
0
6
CONTINUOUS
10
345.675483
20
-7.3999615
11
345.675483
21
-9
0
ARC
8
0
6
CONTINUOUS
10
348.675483
20
-9
40
3
50
179.9999992
51
270
0
ARC
8
0
6
CONTINUOUS
10
244.9152245
20
-16.9767618
40
4
50
303.999999
51
4.0000013
0
ARC
8
0
6
CONTINUOUS
10
258.9494362
20
-54.5530664
40
4
50
123.999999
51
143.999998
0
ARC
8
0
6
CONTINUOUS
10
301.8792807
20
-14.4722579
40
4
50
94.0000013
51
184.0000013
0
ENDSEC
0
EOF