0
SECTION
2
HEADER
9
$INSUNITS
70
4
0
ENDSEC
0
SECTION
2
TABLES
0
TABLE
2
LTYPE
0
LTYPE
72
65
70
0
2
CONTINUOUS
3
______
73
0
40
0
0
LTYPE
72
65
70
0
2
DASHED
3
_ _ _ 
73
2
40
7.5
49
5
49
-2.5
0
LTYPE
72
65
70
0
2
DOTTED
3
. . . 
73
2
40
1.5
49
0.5
49
-1
0
ENDTAB
0
TABLE
2
LAYER
0
ENDTAB
0
ENDSEC
0
SECTION
2
ENTITIES
0
LINE
8
0
6
CONTINUOUS
10
348.675483
20
-9
11
366.675483
21
-9
0
LINE
8
0
6
CONTINUOUS
10
366.675483
20
-9
11
366.675483
21
47
0
LINE
8
0
6
CONTINUOUS
10
348.675483
20
-4.1828554
11
348.675483
21
-9
0
LINE
8
0
6
CONTINUOUS
10
342.6906072
20
47
11
366.675483
21
47
0
LINE
8
0
6
CONTINUOUS
10
328.3252148
20
-5.6058847
11
348.675483
21
-4.1828554
0
LINE
8
0
6
CONTINUOUS
10
327.9764324
20
-0.6180644
11
328.3252148
21
-5.6058847
0
LINE
8
0
6
CONTINUOUS
10
342.6906072
20
47
11
342.3750052
21
51.5133187
0
LINE
8
0
6
CONTINUOUS
10
323.4212883
20
50.1879457
11
342.3750052
21
51.5133187
0
LINE
8
0
6
CONTINUOUS
10
308.0251515
20
-2.0131939
11
327.9764324
21
-0.6180644
0
LINE
8
0
6
CONTINUOUS
10
323.4212883
20
50.1879457
11
323.0725059
21
55.175766
0
LINE
8
0
6
CONTINUOUS
10
323.0725059
20
55.175766
11
305.116353
21
53.9201495
0
LINE
8
0
6
CONTINUOUS
10
305.116353
20
53.9201495
11
305.4651353
21
48.9323292
0
LINE
8
0
6
CONTINUOUS
10
289.4202169
20
-8.3263872
11
308.3739338
21
-7.0010142
0
LINE
8
0
6
CONTINUOUS
10
308.3739338
20
-7.0010142
11
308.0251515
21
-2.0131939
0
LINE
8
0
6
CONTINUOUS
10
286.5114184
20
47.6069562
11
305.4651353
21
48.9323292
0
LINE
8
0
6
CONTINUOUS
10
286.5114184
20
47.6069562
11
286.8602007
21
42.6191359
0
LINE
8
0
6
CONTINUOUS
10
271.8128463
20
-14.569824
11
289.7689992
21
-13.3142075
0
LINE
8
0
6
CONTINUOUS
10
289.7689992
20
-13.3142075
11
289.4202169
21
-8.3263872
0
LINE
8
0
6
CONTINUOUS
10
270.5572298
20
3.3863289
11
271.8128463
21
-14.569824
0
LINE
8
0
6
CONTINUOUS
10
270.5572298
20
3.3863289
11
270.4874733
21
4.383893
0
LINE
8
0
6
CONTINUOUS
10
269.2318568
20
22.3400459
11
270.4874733
21
4.383893
0
LINE
8
0
6
CONTINUOUS
10
269.2318568
20
22.3400459
11
269.1621003
21
23.33761
0
LINE
8
0
6
CONTINUOUS
10
267.9064838
20
41.2937629
11
269.1621003
21
23.33761
0
LINE
8
0
6
CONTINUOUS
10
267.9064838
20
41.2937629
11
286.8602007
21
42.6191359
0
ENDSEC
0
EOF