0
SECTION
2
HEADER
9
$INSUNITS
70
4
0
ENDSEC
0
SECTION
2
TABLES
0
TABLE
2
LTYPE
0
LTYPE
72
65
70
0
2
CONTINUOUS
3
______
73
0
40
0
0
LTYPE
72
65
70
0
2
DASHED
3
_ _ _ 
73
2
40
7.5
49
5
49
-2.5
0
LTYPE
72
65
70
0
2
DOTTED
3
. . . 
73
2
40
1.5
49
0.5
49
-1
0
ENDTAB
0
TABLE
2
LAYER
0
ENDTAB
0
ENDSEC
0
SECTION
2
ENTITIES
0
LINE
8
0
6
CONTINUOUS
10
-9
20
-9
11
9
21
-9
0
LINE
8
0
6
CONTINUOUS
10
9
20
-9
11
9
21
-4.1828554
0
LINE
8
0
6
CONTINUOUS
10
-9
20
-9
11
-9
21
47
0
LINE
8
0
6
CONTINUOUS
10
-9
20
47
11
14.9848758
21
47
0
LINE
8
0
6
CONTINUOUS
10
9
20
-4.1828554
11
29.3502682
21
-5.6058847
0
LINE
8
0
6
CONTINUOUS
10
29.3502682
20
-5.6058847
11
29.6990506
21
-0.6180644
0
LINE
8
0
6
CONTINUOUS
10
15.3004778
20
51.5133187
11
34.2541947
21
50.1879457
0
LINE
8
0
6
CONTINUOUS
10
15.3004778
20
51.5133187
11
14.9848758
21
47
0
LINE
8
0
6
CONTINUOUS
10
29.6990506
20
-0.6180644
11
49.6503315
21
-2.0131939
0
LINE
8
0
6
CONTINUOUS
10
52.2103477
20
48.9323292
11
52.55913
21
53.9201495
0
LINE
8
0
6
CONTINUOUS
10
52.55913
20
53.9201495
11
34.6029771
21
55.175766
0
LINE
8
0
6
CONTINUOUS
10
34.6029771
20
55.175766
11
34.2541947
21
50.1879457
0
LINE
8
0
6
CONTINUOUS
10
49.3015492
20
-7.0010142
11
68.2552661
21
-8.3263872
0
LINE
8
0
6
CONTINUOUS
10
49.6503315
20
-2.0131939
11
49.3015492
21
-7.0010142
0
LINE
8
0
6
CONTINUOUS
10
70.8152823
20
42.6191359
11
71.1640646
21
47.6069562
0
LINE
8
0
6
CONTINUOUS
10
52.2103477
20
48.9323292
11
71.1640646
21
47.6069562
0
LINE
8
0
6
CONTINUOUS
10
67.9064838
20
-13.3142075
11
85.8626367
21
-14.569824
0
LINE
8
0
6
CONTINUOUS
10
85.8626367
20
-14.569824
11
89.7689992
21
41.2937629
0
LINE
8
0
6
CONTINUOUS
10
68.2552661
20
-8.3263872
11
67.9064838
21
-13.3142075
0
LINE
8
0
6
CONTINUOUS
10
70.8152823
20
42.6191359
11
89.7689992
21
41.2937629
0
ENDSEC
0
EOF