0
SECTION
2
HEADER
9
$INSUNITS
70
4
0
ENDSEC
0
SECTION
2
TABLES
0
TABLE
2
LTYPE
0
LTYPE
72
65
70
0
2
CONTINUOUS
3
______
73
0
40
0
0
LTYPE
72
65
70
0
2
DASHED
3
_ _ _ 
73
2
40
7.5
49
5
49
-2.5
0
LTYPE
72
65
70
0
2
DOTTED
3
. . . 
73
2
40
1.5
49
0.5
49
-1
0
ENDTAB
0
TABLE
2
LAYER
0
ENDTAB
0
ENDSEC
0
SECTION
2
ENTITIES
0
LINE
8
0
6
CONTINUOUS
10
-9
20
-9
11
9
21
-9
0
LINE
8
0
6
CONTINUOUS
10
9
20
-9
11
9
21
-4.1828554
0
LINE
8
0
6
CONTINUOUS
10
-9
20
-9
11
-9
21
47
0
LINE
8
0
6
CONTINUOUS
10
-9
20
47
11
14.9848758
21
47
0
LINE
8
0
6
CONTINUOUS
10
9
20
-4.1828554
11
29.3502682
21
-5.6058847
0
LINE
8
0
6
CONTINUOUS
10
29.3502682
20
-5.6058847
11
29.6990506
21
-0.6180644
0
LINE
8
0
6
CONTINUOUS
10
15.3004778
20
51.5133187
11
34.2541947
21
50.1879457
0
LINE
8
0
6
CONTINUOUS
10
15.3004778
20
51.5133187
11
14.9848758
21
47
0
LINE
8
0
6
CONTINUOUS
10
29.6990506
20
-0.6180644
11
49.6503315
21
-2.0131939
0
LINE
8
0
6
CONTINUOUS
10
52.2103477
20
48.9323292
11
52.55913
21
53.9201495
0
LINE
8
0
6
CONTINUOUS
10
52.55913
20
53.9201495
11
34.6029771
21
55.175766
0
LINE
8
0
6
CONTINUOUS
10
34.6029771
20
55.175766
11
34.2541947
21
50.1879457
0
LINE
8
0
6
CONTINUOUS
10
49.3015492
20
-7.0010142
11
68.2552661
21
-8.3263872
0
LINE
8
0
6
CONTINUOUS
10
49.6503315
20
-2.0131939
11
49.3015492
21
-7.0010142
0
LINE
8
0
6
CONTINUOUS
10
52.2103477
20
48.9323292
11
108.0739346
21
45.0259665
0
LINE
8
0
6
CONTINUOUS
10
80.8748165
20
-14.2210416
11
81.8723805
21
-14.2907981
0
LINE
8
0
6
CONTINUOUS
10
68.2552661
20
-8.3263872
11
68.1855097
21
-9.3239513
0
LINE
8
0
6
CONTINUOUS
10
61.5235341
20
-32.9167061
11
79.479687
21
-34.1723226
0
LINE
8
0
6
CONTINUOUS
10
79.479687
20
-34.1723226
11
79.5494435
21
-33.1747586
0
LINE
8
0
6
CONTINUOUS
10
80.3044238
20
-22.3780376
11
80.8748165
21
-14.2210416
0
LINE
8
0
6
CONTINUOUS
10
61.5235341
20
-32.9167061
11
63.1976895
21
-8.9751689
0
LINE
8
0
6
CONTINUOUS
10
63.1976895
20
-8.9751689
11
68.1855097
21
-9.3239513
0
LINE
8
0
6
CONTINUOUS
10
79.5494435
20
-33.1747586
11
103.6636691
21
-49.4400091
0
LINE
8
0
6
CONTINUOUS
10
105.4953927
20
-20.5200736
11
118.0592089
21
-28.9944746
0
LINE
8
0
6
CONTINUOUS
10
118.0592089
20
-28.9944746
11
116.6892328
21
-31.0255477
0
LINE
8
0
6
CONTINUOUS
10
80.3044238
20
-22.3780376
11
81.4228096
21
-20.7199625
0
LINE
8
0
6
CONTINUOUS
10
103.6636691
20
-49.4400091
11
115.2774957
21
-65.4250701
0
LINE
8
0
6
CONTINUOUS
10
115.2774957
20
-65.4250701
11
134.6939036
21
-51.3182241
0
LINE
8
0
6
CONTINUOUS
10
118.8237018
20
-29.4747652
11
134.6939036
21
-51.3182241
0
LINE
8
0
6
CONTINUOUS
10
116.6892328
20
-31.0255477
11
118.8237018
21
-29.4747652
0
LINE
8
0
6
CONTINUOUS
10
105.4953927
20
-20.5200736
11
109.5110108
21
36.9059412
0
LINE
8
0
6
CONTINUOUS
10
109.5110108
20
36.9059412
11
109.5807673
21
37.9035052
0
LINE
8
0
6
CONTINUOUS
10
81.8723805
20
-14.2907981
11
81.4228096
21
-20.7199625
0
LINE
8
0
6
CONTINUOUS
10
109.5807673
20
37.9035052
11
109.9295497
21
42.8913255
0
ARC
8
0
6
CONTINUOUS
10
107.9344216
20
43.0308384
40
2
50
355.9999987
51
85.9999987
0
ENDSEC
0
EOF