0
SECTION
2
HEADER
9
$INSUNITS
70
4
0
ENDSEC
0
SECTION
2
TABLES
0
TABLE
2
LTYPE
0
LTYPE
72
65
70
0
2
CONTINUOUS
3
______
73
0
40
0
0
LTYPE
72
65
70
0
2
DASHED
3
_ _ _ 
73
2
40
7.5
49
5
49
-2.5
0
LTYPE
72
65
70
0
2
DOTTED
3
. . . 
73
2
40
1.5
49
0.5
49
-1
0
ENDTAB
0
TABLE
2
LAYER
0
ENDTAB
0
ENDSEC
0
SECTION
2
ENTITIES
0
LINE
8
0
6
CONTINUOUS
10
348.675483
20
-9
11
366.675483
21
-9
0
LINE
8
0
6
CONTINUOUS
10
366.675483
20
-9
11
366.675483
21
47
0
LINE
8
0
6
CONTINUOUS
10
348.675483
20
-4.1828554
11
348.675483
21
-9
0
LINE
8
0
6
CONTINUOUS
10
342.6906072
20
47
11
366.675483
21
47
0
LINE
8
0
6
CONTINUOUS
10
328.3252148
20
-5.6058847
11
348.675483
21
-4.1828554
0
LINE
8
0
6
CONTINUOUS
10
327.9764324
20
-0.6180644
11
328.3252148
21
-5.6058847
0
LINE
8
0
6
CONTINUOUS
10
342.6906072
20
47
11
342.3750052
21
51.5133187
0
LINE
8
0
6
CONTINUOUS
10
323.4212883
20
50.1879457
11
342.3750052
21
51.5133187
0
LINE
8
0
6
CONTINUOUS
10
308.0251515
20
-2.0131939
11
327.9764324
21
-0.6180644
0
LINE
8
0
6
CONTINUOUS
10
323.4212883
20
50.1879457
11
323.0725059
21
55.175766
0
LINE
8
0
6
CONTINUOUS
10
323.0725059
20
55.175766
11
305.116353
21
53.9201495
0
LINE
8
0
6
CONTINUOUS
10
305.116353
20
53.9201495
11
305.4651353
21
48.9323292
0
LINE
8
0
6
CONTINUOUS
10
289.4202169
20
-8.3263872
11
308.3739338
21
-7.0010142
0
LINE
8
0
6
CONTINUOUS
10
308.3739338
20
-7.0010142
11
308.0251515
21
-2.0131939
0
LINE
8
0
6
CONTINUOUS
10
249.6015484
20
45.0259665
11
305.4651353
21
48.9323292
0
LINE
8
0
6
CONTINUOUS
10
275.8031025
20
-14.2907981
11
276.8006665
21
-14.2210416
0
LINE
8
0
6
CONTINUOUS
10
289.4899733
20
-9.3239513
11
289.4202169
21
-8.3263872
0
LINE
8
0
6
CONTINUOUS
10
278.195796
20
-34.1723226
11
296.1519489
21
-32.9167061
0
LINE
8
0
6
CONTINUOUS
10
294.4777935
20
-8.9751689
11
296.1519489
21
-32.9167061
0
LINE
8
0
6
CONTINUOUS
10
276.8006665
20
-14.2210416
11
277.3710592
21
-22.3780376
0
LINE
8
0
6
CONTINUOUS
10
278.1260395
20
-33.1747586
11
278.195796
21
-34.1723226
0
LINE
8
0
6
CONTINUOUS
10
289.4899733
20
-9.3239513
11
294.4777935
21
-8.9751689
0
LINE
8
0
6
CONTINUOUS
10
254.0118139
20
-49.4400091
11
278.1260395
21
-33.1747586
0
LINE
8
0
6
CONTINUOUS
10
239.6162741
20
-28.9944746
11
252.1800903
21
-20.5200736
0
LINE
8
0
6
CONTINUOUS
10
276.2526734
20
-20.7199625
11
277.3710592
21
-22.3780376
0
LINE
8
0
6
CONTINUOUS
10
240.9862502
20
-31.0255477
11
239.6162741
21
-28.9944746
0
LINE
8
0
6
CONTINUOUS
10
242.3979873
20
-65.4250701
11
254.0118139
21
-49.4400091
0
LINE
8
0
6
CONTINUOUS
10
222.9815794
20
-51.3182241
11
242.3979873
21
-65.4250701
0
LINE
8
0
6
CONTINUOUS
10
222.9815794
20
-51.3182241
11
238.8517812
21
-29.4747652
0
LINE
8
0
6
CONTINUOUS
10
238.8517812
20
-29.4747652
11
240.9862502
21
-31.0255477
0
LINE
8
0
6
CONTINUOUS
10
276.2526734
20
-20.7199625
11
275.8031025
21
-14.2907981
0
LINE
8
0
6
CONTINUOUS
10
248.0947157
20
37.9035052
11
248.1644722
21
36.9059412
0
LINE
8
0
6
CONTINUOUS
10
248.1644722
20
36.9059412
11
252.1800903
21
-20.5200736
0
LINE
8
0
6
CONTINUOUS
10
247.7459333
20
42.8913255
11
248.0947157
21
37.9035052
0
ARC
8
0
6
CONTINUOUS
10
249.7410614
20
43.0308384
40
2
50
94.0000013
51
184.0000013
0
ENDSEC
0
EOF