0
SECTION
2
HEADER
9
$INSUNITS
70
4
0
ENDSEC
0
SECTION
2
TABLES
0
TABLE
2
LTYPE
0
LTYPE
72
65
70
0
2
CONTINUOUS
3
______
73
0
40
0
0
LTYPE
72
65
70
0
2
DASHED
3
_ _ _ 
73
2
40
7.5
49
5
49
-2.5
0
LTYPE
72
65
70
0
2
DOTTED
3
. . . 
73
2
40
1.5
49
0.5
49
-1
0
ENDTAB
0
TABLE
2
LAYER
0
ENDTAB
0
ENDSEC
0
SECTION
2
ENTITIES
0
LINE
8
0
6
CONTINUOUS
10
278.195796
20
-34.1723226
11
296.1519489
21
-32.9167061
0
LINE
8
0
6
CONTINUOUS
10
294.4777935
20
-8.9751689
11
296.1519489
21
-32.9167061
0
LINE
8
0
6
CONTINUOUS
10
276.5216406
20
-10.2307854
11
277.3710592
21
-22.3780376
0
LINE
8
0
6
CONTINUOUS
10
278.1260395
20
-33.1747586
11
278.195796
21
-34.1723226
0
LINE
8
0
6
CONTINUOUS
10
276.5216406
20
-10.2307854
11
294.4777935
21
-8.9751689
0
LINE
8
0
6
CONTINUOUS
10
254.0118139
20
-49.4400091
11
278.1260395
21
-33.1747586
0
LINE
8
0
6
CONTINUOUS
10
239.6162741
20
-28.9944746
11
268.6325892
21
-9.422723
0
LINE
8
0
6
CONTINUOUS
10
268.6325892
20
-9.422723
11
277.3710592
21
-22.3780376
0
LINE
8
0
6
CONTINUOUS
10
240.9862502
20
-31.0255477
11
239.6162741
21
-28.9944746
0
LINE
8
0
6
CONTINUOUS
10
242.3979873
20
-65.4250701
11
254.0118139
21
-49.4400091
0
LINE
8
0
6
CONTINUOUS
10
222.9815794
20
-51.3182241
11
242.3979873
21
-65.4250701
0
LINE
8
0
6
CONTINUOUS
10
222.9815794
20
-51.3182241
11
238.8517812
21
-29.4747652
0
LINE
8
0
6
CONTINUOUS
10
238.8517812
20
-29.4747652
11
240.9862502
21
-31.0255477
0
ENDSEC
0
EOF