0
SECTION
2
HEADER
9
$INSUNITS
70
4
0
ENDSEC
0
SECTION
2
TABLES
0
TABLE
2
LTYPE
0
LTYPE
72
65
70
0
2
CONTINUOUS
3
______
73
0
40
0
0
LTYPE
72
65
70
0
2
DASHED
3
_ _ _ 
73
2
40
7.5
49
5
49
-2.5
0
LTYPE
72
65
70
0
2
DOTTED
3
. . . 
73
2
40
1.5
49
0.5
49
-1
0
ENDTAB
0
TABLE
2
LAYER
0
ENDTAB
0
ENDSEC
0
SECTION
2
ENTITIES
0
LINE
8
0
6
CONTINUOUS
10
61.5235341
20
-32.9167061
11
79.479687
21
-34.1723226
0
LINE
8
0
6
CONTINUOUS
10
79.479687
20
-34.1723226
11
79.5494435
21
-33.1747586
0
LINE
8
0
6
CONTINUOUS
10
80.3044238
20
-22.3780376
11
81.1538424
21
-10.2307854
0
LINE
8
0
6
CONTINUOUS
10
61.5235341
20
-32.9167061
11
63.1976895
21
-8.9751689
0
LINE
8
0
6
CONTINUOUS
10
63.1976895
20
-8.9751689
11
81.1538424
21
-10.2307854
0
LINE
8
0
6
CONTINUOUS
10
79.5494435
20
-33.1747586
11
103.6636691
21
-49.4400091
0
LINE
8
0
6
CONTINUOUS
10
89.0428938
20
-9.422723
11
118.0592089
21
-28.9944746
0
LINE
8
0
6
CONTINUOUS
10
118.0592089
20
-28.9944746
11
116.6892328
21
-31.0255477
0
LINE
8
0
6
CONTINUOUS
10
80.3044238
20
-22.3780376
11
89.0428938
21
-9.422723
0
LINE
8
0
6
CONTINUOUS
10
103.6636691
20
-49.4400091
11
115.2774957
21
-65.4250701
0
LINE
8
0
6
CONTINUOUS
10
115.2774957
20
-65.4250701
11
134.6939036
21
-51.3182241
0
LINE
8
0
6
CONTINUOUS
10
118.8237018
20
-29.4747652
11
134.6939036
21
-51.3182241
0
LINE
8
0
6
CONTINUOUS
10
116.6892328
20
-31.0255477
11
118.8237018
21
-29.4747652
0
ENDSEC
0
EOF