0
SECTION
2
HEADER
9
$INSUNITS
70
4
0
ENDSEC
0
SECTION
2
TABLES
0
TABLE
2
LTYPE
0
LTYPE
72
65
70
0
2
CONTINUOUS
3
______
73
0
40
0
0
LTYPE
72
65
70
0
2
DASHED
3
_ _ _ 
73
2
40
7.5
49
5
49
-2.5
0
LTYPE
72
65
70
0
2
DOTTED
3
. . . 
73
2
40
1.5
49
0.5
49
-1
0
ENDTAB
0
TABLE
2
LAYER
0
ENDTAB
0
ENDSEC
0
SECTION
2
ENTITIES
0
LINE
8
0
6
CONTINUOUS
10
254.833284
20
-29.7913373
11
274.784565
21
-28.3962078
0
LINE
8
0
6
CONTINUOUS
10
276.6401801
20
-26.2615668
11
272.0362528
21
39.5776606
0
LINE
8
0
6
CONTINUOUS
10
269.9016118
20
41.4332757
11
249.9503308
21
40.0381462
0
LINE
8
0
6
CONTINUOUS
10
248.0947157
20
37.9035052
11
252.698643
21
-27.9357222
0
ARC
8
0
6
CONTINUOUS
10
274.6450521
20
-26.4010797
40
2
50
274.0000013
51
4.0000013
0
ARC
8
0
6
CONTINUOUS
10
270.0411248
20
39.4381476
40
2
50
4.0000013
51
94.0000013
0
ARC
8
0
6
CONTINUOUS
10
250.0898437
20
38.0430181
40
2
50
94.0000013
51
184.0000013
0
ARC
8
0
6
CONTINUOUS
10
254.693771
20
-27.7962092
40
2
50
184.0000013
51
274.0000013
0
ENDSEC
0
EOF