0
SECTION
2
HEADER
9
$INSUNITS
70
4
0
ENDSEC
0
SECTION
2
TABLES
0
TABLE
2
LTYPE
0
LTYPE
72
65
70
0
2
CONTINUOUS
3
______
73
0
40
0
0
LTYPE
72
65
70
0
2
DASHED
3
_ _ _ 
73
2
40
7.5
49
5
49
-2.5
0
LTYPE
72
65
70
0
2
DOTTED
3
. . . 
73
2
40
1.5
49
0.5
49
-1
0
ENDTAB
0
TABLE
2
LAYER
0
ENDTAB
0
ENDSEC
0
SECTION
2
ENTITIES
0
LINE
8
0
6
CONTINUOUS
10
62.4859874
20
38.1893675
11
107.3763698
21
35.0503261
0
LINE
8
0
6
CONTINUOUS
10
109.5110108
20
36.9059412
11
109.9295497
21
42.8913255
0
LINE
8
0
6
CONTINUOUS
10
108.0739346
20
45.0259665
11
63.1835522
21
48.1650079
0
LINE
8
0
6
CONTINUOUS
10
61.0489112
20
46.3093928
11
60.6303723
21
40.3240085
0
ARC
8
0
6
CONTINUOUS
10
107.5158827
20
37.0454542
40
2
50
265.9999987
51
355.9999987
0
ARC
8
0
6
CONTINUOUS
10
107.9344216
20
43.0308384
40
2
50
355.9999987
51
85.9999987
0
ARC
8
0
6
CONTINUOUS
10
63.0440393
20
46.1698798
40
2
50
85.9999987
51
175.9999987
0
ARC
8
0
6
CONTINUOUS
10
62.6255004
20
40.1844956
40
2
50
175.9999987
51
265.9999987
0
ENDSEC
0
EOF