0
SECTION
2
HEADER
9
$INSUNITS
70
4
0
ENDSEC
0
SECTION
2
TABLES
0
TABLE
2
LTYPE
0
LTYPE
72
65
70
0
2
CONTINUOUS
3
______
73
0
40
0
0
LTYPE
72
65
70
0
2
DASHED
3
_ _ _ 
73
2
40
7.5
49
5
49
-2.5
0
LTYPE
72
65
70
0
2
DOTTED
3
. . . 
73
2
40
1.5
49
0.5
49
-1
0
ENDTAB
0
TABLE
2
LAYER
0
ENDTAB
0
ENDSEC
0
SECTION
2
ENTITIES
0
LINE
8
0
6
CONTINUOUS
10
77.7635848
20
-30.0425535
11
97.7148658
21
-31.437683
0
LINE
8
0
6
CONTINUOUS
10
99.8495068
20
-29.5820679
11
104.4534341
21
36.2571595
0
LINE
8
0
6
CONTINUOUS
10
102.597819
20
38.3918005
11
82.646538
21
39.78693
0
LINE
8
0
6
CONTINUOUS
10
80.511897
20
37.9313149
11
75.9079697
21
-27.9079125
0
ARC
8
0
6
CONTINUOUS
10
97.8543788
20
-29.4425549
40
2
50
265.9999987
51
355.9999987
0
ARC
8
0
6
CONTINUOUS
10
102.4583061
20
36.3966724
40
2
50
355.9999987
51
85.9999987
0
ARC
8
0
6
CONTINUOUS
10
82.507025
20
37.7918019
40
2
50
85.9999987
51
175.9999987
0
ARC
8
0
6
CONTINUOUS
10
77.9030977
20
-28.0474254
40
2
50
175.9999987
51
265.9999987
0
ENDSEC
0
EOF