0
SECTION
2
HEADER
9
$INSUNITS
70
4
0
ENDSEC
0
SECTION
2
TABLES
0
TABLE
2
LTYPE
0
LTYPE
72
65
70
0
2
CONTINUOUS
3
______
73
0
40
0
0
LTYPE
72
65
70
0
2
DASHED
3
_ _ _ 
73
2
40
7.5
49
5
49
-2.5
0
LTYPE
72
65
70
0
2
DOTTED
3
. . . 
73
2
40
1.5
49
0.5
49
-1
0
ENDTAB
0
TABLE
2
LAYER
0
ENDTAB
0
ENDSEC
0
SECTION
2
ENTITIES
0
LINE
8
0
6
CONTINUOUS
10
82.890918
20
-28.3962078
11
102.842199
21
-29.7913373
0
LINE
8
0
6
CONTINUOUS
10
104.97684
20
-27.9357222
11
109.5807673
21
37.9035052
0
LINE
8
0
6
CONTINUOUS
10
107.7251522
20
40.0381462
11
87.7738712
21
41.4332757
0
LINE
8
0
6
CONTINUOUS
10
85.6392302
20
39.5776606
11
81.0353029
21
-26.2615668
0
ARC
8
0
6
CONTINUOUS
10
102.981712
20
-27.7962092
40
2
50
265.9999987
51
355.9999987
0
ARC
8
0
6
CONTINUOUS
10
107.5856393
20
38.0430181
40
2
50
355.9999987
51
85.9999987
0
ARC
8
0
6
CONTINUOUS
10
87.6343582
20
39.4381476
40
2
50
85.9999987
51
175.9999987
0
ARC
8
0
6
CONTINUOUS
10
83.0304309
20
-26.4010797
40
2
50
175.9999987
51
265.9999987
0
ENDSEC
0
EOF