0
SECTION
2
HEADER
9
$INSUNITS
70
4
0
ENDSEC
0
SECTION
2
TABLES
0
TABLE
2
LTYPE
0
LTYPE
72
65
70
0
2
CONTINUOUS
3
______
73
0
40
0
0
LTYPE
72
65
70
0
2
DASHED
3
_ _ _ 
73
2
40
7.5
49
5
49
-2.5
0
LTYPE
72
65
70
0
2
DOTTED
3
. . . 
73
2
40
1.5
49
0.5
49
-1
0
ENDTAB
0
TABLE
2
LAYER
0
ENDTAB
0
ENDSEC
0
SECTION
2
ENTITIES
0
LINE
8
0
6
CONTINUOUS
10
250.2991132
20
35.0503261
11
295.1894956
21
38.1893675
0
LINE
8
0
6
CONTINUOUS
10
297.0451107
20
40.3240085
11
296.6265718
21
46.3093928
0
LINE
8
0
6
CONTINUOUS
10
294.4919308
20
48.1650079
11
249.6015484
21
45.0259665
0
LINE
8
0
6
CONTINUOUS
10
247.7459333
20
42.8913255
11
248.1644722
21
36.9059412
0
ARC
8
0
6
CONTINUOUS
10
295.0499826
20
40.1844956
40
2
50
274.0000013
51
4.0000013
0
ARC
8
0
6
CONTINUOUS
10
294.6314437
20
46.1698798
40
2
50
4.0000013
51
94.0000013
0
ARC
8
0
6
CONTINUOUS
10
249.7410614
20
43.0308384
40
2
50
94.0000013
51
184.0000013
0
ARC
8
0
6
CONTINUOUS
10
250.1596003
20
37.0454542
40
2
50
184.0000013
51
274.0000013
0
ENDSEC
0
EOF